<svg xmlns="http://www.w3.org/2000/svg" viewBox="0 0 30 30"><defs><style>.cls-1{fill:#29263e;}.cls-2{fill:#9534ff;}.cls-3{fill:#fff;}</style></defs><g id="Layer_2" data-name="Layer 2"><g id="Layer_1-2" data-name="Layer 1"><circle class="cls-1" cx="15" cy="15" r="15"/><path class="cls-2" d="M23.44,16.33a4.58,4.58,0,0,0-1.39-1.15A.72.72,0,0,1,21.91,14a5,5,0,0,0,.93-1.16,5.91,5.91,0,0,0,.69-3,5.88,5.88,0,0,0-1.64-4.44,7,7,0,0,0-5-1.57H9.42A3.78,3.78,0,0,0,5.64,7.66V9.59A3.67,3.67,0,0,1,6.85,8.48a4.06,4.06,0,0,1,2-.56,3.79,3.79,0,0,1,1.43.28l.09,0a1.36,1.36,0,0,1,1.28-.91h4a4,4,0,0,1,2.75.73,3,3,0,0,1,.74,2.21,2.85,2.85,0,0,1-.73,2.09A3.29,3.29,0,0,1,16,13.1h-.91l.08.12a7.67,7.67,0,0,1,1.11,3.27,4.06,4.06,0,0,1,2.5.72,2.81,2.81,0,0,1,.81,2.21A3.26,3.26,0,0,1,18.8,22a3.83,3.83,0,0,1-2.59.73H12.8v1.15A1.8,1.8,0,0,1,11,25.65H11a1.91,1.91,0,0,1-1.58-1.07.57.57,0,0,0-1,0,1.89,1.89,0,0,1-.6.71,4.81,4.81,0,0,0,2.7.83h6.85a7.54,7.54,0,0,0,5.23-1.64,6.22,6.22,0,0,0,1.82-4.85A5.13,5.13,0,0,0,23.44,16.33Z"/><path class="cls-3" d="M15.11,15.06a6.58,6.58,0,0,0-3-3.62.56.56,0,0,1-.18-.16.37.37,0,0,1-.08-.18A3.05,3.05,0,0,0,10,9a3.17,3.17,0,0,0-1.11-.21A3,3,0,0,0,5.92,11.1a.61.61,0,0,1-.25.34,5.74,5.74,0,0,0-.9.62A6.54,6.54,0,0,0,3.6,21.18l0,.05a.63.63,0,0,0,1.11-.4v-1s0,0,0-.06a.53.53,0,0,1,.52-.47.54.54,0,0,1,.54.53v3.61s0,0,0,0v.34a.9.9,0,0,0,1.76.29,1,1,0,0,0,0-.29,1.25,1.25,0,0,1,2.49,0,1,1,0,0,0,.05.29.89.89,0,0,0,.85.62.9.9,0,0,0,.9-.91v-.46h0V19.78a.54.54,0,1,1,1.07,0v1a.63.63,0,0,0,.63.63.65.65,0,0,0,.48-.23.08.08,0,0,1,0,0,6.65,6.65,0,0,0,1.34-4A6.73,6.73,0,0,0,15.11,15.06Zm-3.93,0a3,3,0,0,1-1,.54,4.11,4.11,0,0,1-1.35.23c-1.68,0-3-1-3-2.15s1.36-2.14,3-2.14,3,1,3,2.14A1.81,1.81,0,0,1,11.18,15.07Z"/><circle class="cls-3" cx="7.48" cy="13.69" r="0.54"/><path class="cls-3" d="M10.23,13.16a.54.54,0,1,0,.54.53A.53.53,0,0,0,10.23,13.16Z"/><circle class="cls-3" cx="10.23" cy="13.69" r="0.54"/><circle class="cls-3" cx="7.49" cy="13.69" r="0.54"/></g></g></svg>