<svg xmlns="http://www.w3.org/2000/svg" viewBox="0 0 79.5 52"><defs><style>.cls-1{fill:#e84142;}.cls-2{fill:#fff;}.cls-3{fill:#29263e;}.cls-4{fill:#9534ff;}</style></defs><g id="Layer_2" data-name="Layer 2"><g id="Layer_1-2" data-name="Layer 1"><circle class="cls-1" cx="53.5" cy="26" r="26"/><path class="cls-2" d="M62.67,26.68c.9-1.56,2.35-1.56,3.25,0l5.61,9.84c.9,1.56.17,2.83-1.63,2.83H58.59c-1.78,0-2.51-1.27-1.63-2.83Zm-10.85-19c.9-1.56,2.33-1.56,3.23,0L56.3,10l3,5.18a5.36,5.36,0,0,1,0,4.69L49.36,37a5.17,5.17,0,0,1-4,2.38H37.1c-1.8,0-2.54-1.25-1.64-2.83Z"/><circle class="cls-3" cx="26" cy="26" r="26"/><path class="cls-2" d="M26,1A25,25,0,1,1,1,26,25,25,0,0,1,26,1m0-1A26,26,0,1,0,52,26,26,26,0,0,0,26,0Z"/><path class="cls-4" d="M39.63,28.17a7.69,7.69,0,0,0-2.27-1.88,1.16,1.16,0,0,1-.23-1.85,8.11,8.11,0,0,0,1.51-1.91,9.55,9.55,0,0,0,1.13-4.88c0-3.13-.89-5.54-2.68-7.26s-4.5-2.56-8.15-2.56H16.71A6.17,6.17,0,0,0,10.54,14v3.16a6,6,0,0,1,2-1.82,6.55,6.55,0,0,1,3.3-.91,6.36,6.36,0,0,1,2.34.45l.15.07a2.23,2.23,0,0,1,2.1-1.48H27c2.18,0,3.68.4,4.49,1.19a4.83,4.83,0,0,1,1.21,3.61,4.67,4.67,0,0,1-1.18,3.41,5.37,5.37,0,0,1-3.95,1.22H26.05c0,.06.09.12.13.19A12.39,12.39,0,0,1,28,28.44a6.56,6.56,0,0,1,4.08,1.17,4.62,4.62,0,0,1,1.33,3.61c0,2-.46,3.39-1.36,4.18a6.3,6.3,0,0,1-4.23,1.19H22.24v1.88a2.93,2.93,0,0,1-2.93,2.93h-.1a3,3,0,0,1-2.58-1.75.91.91,0,0,0-.82-.5.9.9,0,0,0-.82.5,3.34,3.34,0,0,1-1,1.17,7.77,7.77,0,0,0,4.41,1.35h11.2q5.6,0,8.55-2.68c2-1.78,3-4.43,3-7.93A8.36,8.36,0,0,0,39.63,28.17Z"/><path class="cls-2" d="M26,26.1a10.77,10.77,0,0,0-5-5.92.87.87,0,0,1-.28-.26,1.11,1.11,0,0,1-.14-.29,5,5,0,0,0-9.64,0,.85.85,0,0,1-.42.54,12.67,12.67,0,0,0-1.46,1A10.7,10.7,0,0,0,5,29.61,10.81,10.81,0,0,0,7.2,36.1l.08.08a1,1,0,0,0,.79.37,1,1,0,0,0,1-1V34a.36.36,0,0,1,0-.1.87.87,0,0,1,.85-.78.87.87,0,0,1,.88.88v5.89s0,0,0,.06v.57a1.47,1.47,0,0,0,2.87.47,1.53,1.53,0,0,0,.07-.47,2,2,0,0,1,4.07,0A1.51,1.51,0,0,0,19.31,42a1.47,1.47,0,0,0,1.47-1.48v-.76h0v-5.9a.88.88,0,0,1,1.75,0v1.72a1,1,0,0,0,1,1,1,1,0,0,0,.79-.37l.06-.06a10.8,10.8,0,0,0,2.2-6.51A10.6,10.6,0,0,0,26,26.1Zm-6.42,0A4.83,4.83,0,0,1,18,27a6.58,6.58,0,0,1-2.22.38c-2.74,0-5-1.57-5-3.5s2.22-3.5,5-3.5,5,1.56,5,3.5A3,3,0,0,1,19.59,26.11Z"/><circle class="cls-2" cx="13.54" cy="23.87" r="0.88"/><path class="cls-2" d="M18,23a.88.88,0,1,0,.88.88A.87.87,0,0,0,18,23Z"/><circle class="cls-2" cx="18.04" cy="23.87" r="0.88"/><circle class="cls-2" cx="13.55" cy="23.87" r="0.88"/></g></g></svg>