<?xml version="1.0" encoding="utf-8"?>
<!-- Generator: Adobe Illustrator 25.4.1, SVG Export Plug-In . SVG Version: 6.00 Build 0)  -->
<svg version="1.1" id="Layer_1" xmlns="http://www.w3.org/2000/svg" xmlns:xlink="http://www.w3.org/1999/xlink" x="0px" y="0px"
	 viewBox="0 0 128 128" style="enable-background:new 0 0 128 128;" xml:space="preserve">
<style type="text/css">
	.st0{fill:#57B3E4;}
	.st1{fill:#FFFFFF;}
</style>
<g>
	<circle class="st0" cx="64" cy="64" r="64"/>
	<path id="Combined-Shape" class="st1" d="M59.9,19.4c2.2-1.2,5.6-1.2,7.8,0l0,0l22.5,11.8c1.3,0.7,2.1,1.8,2.2,2.8l0,0v59.6l0,0
		c-0.1,1.2-0.8,2.3-2.2,3l0,0l-22.5,11.9c-2.2,1.2-5.6,1.2-7.8,0l0,0L37.5,96.7c-1.4-0.8-2.1-1.9-2.2-3.1l0,0.1h0V34.1l0,0
		c0.1-1.1,0.8-2.1,2.2-2.8l0,0L59.9,19.4z M38.7,67.3v26.1l21.2,11.2c1.2,0.7,2.5,1.3,3.7,1.3l0.1,0c1.1,0,2.2-0.5,3.3-1l0.4-0.2
		L89,93.3V67.5l-21,11c-2.2,1.1-5.4,1.2-7.7,0.1l-0.1-0.1L38.7,67.3z M31.7,92.4c0,2.3,0.3,3.8,0.8,4.8c0.4,0.9,1.1,1.5,2.3,2.3
		l0.1,0c0.3,0.2,0.6,0.4,0.9,0.6l0.4,0.3l1.3,0.8l-1.8,3l-1.4-0.9l-0.2-0.1c-0.4-0.3-0.8-0.5-1.1-0.7c-3.4-2.3-4.7-4.8-4.7-9.9
		l0-0.2H31.7z M65.7,51.5v24.2c0.2-0.1,0.4-0.1,0.6-0.2l0,0l22.5-11.8c0,0,0,0,0.1,0l0,0l0,0l0,0l-0.1,0L66.3,51.7
		C66.1,51.6,65.9,51.5,65.7,51.5z M62.3,51.5c-0.2,0.1-0.3,0.1-0.5,0.2l0,0L39.3,63.5c0,0,0,0-0.1,0l0,0l0,0l0,0l0.1,0l22.5,11.8
		c0.1,0.1,0.3,0.1,0.5,0.2V51.5z M38.7,38.2v21.6L59.3,49L38.7,38.2z M89,38.2L68.5,48.9L89,59.6V38.2z M66,22.5
		c-1.2-0.6-3.3-0.6-4.5,0l0,0L39.1,34.3c0,0,0,0-0.1,0l0,0l0,0l0,0l0.1,0l22.5,11.8c1.2,0.6,3.3,0.6,4.5,0l0,0l22.5-11.8
		c0,0,0,0,0.1,0l0,0l0,0l0,0l-0.1,0L66,22.5z M92.4,23.8l1.4,0.9l0.2,0.1c0.4,0.3,0.8,0.5,1.1,0.7c3.4,2.3,4.7,4.8,4.7,9.9l0,0.2
		h-3.5c0-2.3-0.3-3.8-0.8-4.8c-0.4-0.9-1.1-1.5-2.3-2.3l-0.1,0c-0.3-0.2-0.6-0.4-0.9-0.6l-0.4-0.3l-1.3-0.8L92.4,23.8z"/>
</g>
</svg>
