<svg width="43" height="29" viewBox="0 0 43 29" fill="none" xmlns="http://www.w3.org/2000/svg">
<path d="M28.6 28.8C36.5529 28.8 43 22.3529 43 14.4C43 6.4471 36.5529 0 28.6 0C20.6471 0 14.2 6.4471 14.2 14.4C14.2 22.3529 20.6471 28.8 28.6 28.8Z" fill="#57B3E4"/>
<path d="M27.6776 4.36491C28.1726 4.09491 28.9376 4.09491 29.4326 4.36491L34.4951 7.01991C34.7876 7.17741 34.9676 7.42491 34.9901 7.64991V21.0599C34.9676 21.3299 34.8101 21.5774 34.4951 21.7349L29.4326 24.4124C28.9376 24.6824 28.1726 24.6824 27.6776 24.4124L22.6376 21.7574C22.3226 21.5774 22.1651 21.3299 22.1426 21.0599V21.0824V7.67241C22.1651 7.42491 22.3226 7.19991 22.6376 7.04241L27.6776 4.36491ZM22.9076 15.1424V21.0149L27.6776 23.5349C27.9476 23.6924 28.2401 23.8274 28.5101 23.8274H28.5326C28.7801 23.8274 29.0276 23.7149 29.2751 23.6024L29.3651 23.5574L34.2251 20.9924V15.1874L29.5001 17.6624C29.0051 17.9099 28.2851 17.9324 27.7676 17.6849L27.7451 17.6624L22.9076 15.1424ZM21.3326 20.7899C21.3326 21.3074 21.4001 21.6449 21.5126 21.8699C21.6026 22.0724 21.7601 22.2074 22.0301 22.3874H22.0526C22.1201 22.4324 22.1876 22.4774 22.2551 22.5224L22.3451 22.5899L22.6376 22.7699L22.2326 23.4449L21.9176 23.2424L21.8726 23.2199C21.7826 23.1524 21.6926 23.1074 21.6251 23.0624C20.8601 22.5449 20.5676 21.9824 20.5676 20.8349V20.7899H21.3326V20.7899ZM28.9826 11.5874V17.0324C29.0276 17.0099 29.0726 17.0099 29.1176 16.9874L34.1801 14.3324C34.1801 14.3324 34.1801 14.3324 34.2026 14.3324H34.1801L29.1176 11.6324C29.0726 11.6099 29.0276 11.5874 28.9826 11.5874ZM28.2176 11.5874C28.1726 11.6099 28.1501 11.6099 28.1051 11.6324L23.0426 14.2874C23.0426 14.2874 23.0426 14.2874 23.0201 14.2874H23.0426L28.1051 16.9424C28.1276 16.9649 28.1726 16.9649 28.2176 16.9874V11.5874ZM22.9076 8.59491V13.4549L27.5426 11.0249L22.9076 8.59491ZM34.2251 8.59491L29.6126 11.0024L34.2251 13.4099V8.59491ZM29.0501 5.06241C28.7801 4.92741 28.3076 4.92741 28.0376 5.06241L22.9976 7.71741C22.9976 7.71741 22.9976 7.71741 22.9751 7.71741H22.9976L28.0601 10.3724C28.3301 10.5074 28.8026 10.5074 29.0726 10.3724L34.1351 7.71741C34.1351 7.71741 34.1351 7.71741 34.1576 7.71741H34.1351L29.0501 5.06241ZM34.9901 5.35491L35.3051 5.55741L35.3501 5.57991C35.4401 5.64741 35.5301 5.69241 35.5976 5.73741C36.3626 6.25491 36.6551 6.81741 36.6551 7.96491V8.00991H35.8676C35.8676 7.49241 35.8001 7.15491 35.6876 6.92991C35.5976 6.72741 35.4401 6.59241 35.1701 6.41241H35.1476C35.0801 6.36741 35.0126 6.32241 34.9451 6.27741L34.8551 6.20991L34.5626 6.02991L34.9901 5.35491Z" fill="white"/>
<g clip-path="url(#clip0)">
<path d="M14.4 28.8C22.3529 28.8 28.8 22.3529 28.8 14.4C28.8 6.4471 22.3529 0 14.4 0C6.4471 0 0 6.4471 0 14.4C0 22.3529 6.4471 28.8 14.4 28.8Z" fill="url(#paint0_linear)"/>
<path d="M14.4 0.6345C17.1226 0.6345 19.784 1.44183 22.0477 2.9544C24.3114 4.46698 26.0758 6.61686 27.1177 9.13217C28.1595 11.6475 28.4322 14.4153 27.901 17.0855C27.3699 19.7558 26.0588 22.2085 24.1337 24.1337C22.2085 26.0588 19.7558 27.3699 17.0855 27.901C14.4153 28.4321 11.6475 28.1595 9.13218 27.1177C6.61686 26.0758 4.46698 24.3114 2.95441 22.0477C1.44184 19.784 0.634506 17.1226 0.634506 14.4C0.638081 10.7503 2.08952 7.25103 4.67028 4.67027C7.25103 2.08951 10.7503 0.638074 14.4 0.6345V0.6345ZM14.4 0C11.552 0 8.76786 0.844545 6.39979 2.42684C4.03173 4.00913 2.18604 6.2581 1.09614 8.88936C0.00623925 11.5206 -0.278929 14.416 0.276698 17.2093C0.832326 20.0026 2.20379 22.5685 4.21767 24.5823C6.23154 26.5962 8.79738 27.9677 11.5907 28.5233C14.384 29.0789 17.2794 28.7938 19.9106 27.7039C22.5419 26.614 24.7909 24.7683 26.3732 22.4002C27.9555 20.0321 28.8 17.2481 28.8 14.4C28.8 10.5809 27.2829 6.91819 24.5823 4.21766C21.8818 1.51714 18.2191 0 14.4 0V0Z" fill="white"/>
<path d="M3.6203 16.1998L9.88655 9.92225C10.5435 9.25447 11.3395 8.73958 12.2179 8.41417C13.0963 8.08876 14.0356 7.96081 14.969 8.03942C15.9025 8.11803 16.8072 8.40127 17.6188 8.86901C18.4304 9.33675 19.129 9.97751 19.665 10.7458C19.683 10.7638 19.7033 10.7795 19.7213 10.7998C20.0228 11.1615 20.4285 11.4216 20.8831 11.5444C21.3378 11.6673 21.8192 11.6471 22.2619 11.4865C22.7046 11.3259 23.0871 11.0327 23.3572 10.6469C23.6273 10.2611 23.7719 9.80145 23.7713 9.3305C23.7389 8.8262 23.5718 8.33981 23.2875 7.922C22.3339 6.61869 21.1043 5.54207 19.6863 4.76907C18.2684 3.99606 16.6973 3.54576 15.0852 3.45032C13.4731 3.35488 11.8598 3.61667 10.3606 4.21698C8.86139 4.81729 7.51327 5.7413 6.41255 6.923C5.37875 8.02159 4.58484 9.32324 4.08128 10.7452C3.57772 12.1672 3.37552 13.6784 3.48755 15.1828C3.5258 15.5248 3.56405 15.86 3.6203 16.1998Z" fill="#A7FF58"/>
<path d="M24.7499 15.6623C24.591 15.4558 24.3864 15.2888 24.1522 15.1744C23.918 15.0601 23.6606 15.0014 23.3999 15.0031H16.7759H16.7309C16.5018 15.003 16.2749 15.0489 16.0638 15.1382C15.8528 15.2275 15.6618 15.3583 15.5023 15.5229C15.3428 15.6874 15.218 15.8824 15.1353 16.0961C15.0526 16.3098 15.0137 16.538 15.0209 16.7671C15.0457 17.6513 15.8917 18.4253 16.8209 18.4253H17.2709C17.4453 18.4294 17.6147 18.4841 17.7585 18.5827C17.9024 18.6813 18.0145 18.8196 18.0813 18.9807C18.148 19.1418 18.1665 19.3188 18.1345 19.4903C18.1025 19.6617 18.0213 19.8202 17.9009 19.9463L12.6584 25.2226C12.9914 25.2766 13.3334 25.3171 13.6642 25.3396C16.2169 25.5175 18.7517 24.799 20.8314 23.308C22.911 21.8169 24.4051 19.6469 25.0559 17.1721C25.1247 16.9139 25.1328 16.6433 25.0797 16.3814C25.0266 16.1195 24.9138 15.8734 24.7499 15.6623V15.6623Z" fill="#A7FF58"/>
<path d="M14.3775 9.22479C13.456 9.25165 12.5621 9.54469 11.8035 10.0685L11.7405 10.1113C11.0788 10.5493 10.4623 11.052 9.9 11.612L2.93625 18.5578C2.6235 18.8683 2.8215 19.7098 3.80025 19.307L4.725 18.9605C5.7015 18.6973 6.41925 18.7625 6.95475 19.4668C7.40475 20.0698 7.11675 21.0553 7.11675 21.0553C6.90525 21.7505 7.4385 22.2275 8.01675 21.9935L8.39025 21.8563C8.81421 21.7078 9.27802 21.7207 9.69308 21.8925C10.1081 22.0643 10.4453 22.3831 10.6403 22.7878C10.8218 23.1487 10.8619 23.5643 10.7528 23.9533V23.9533C10.7098 24.0757 10.7114 24.2093 10.7573 24.3306C10.8031 24.4519 10.8903 24.5532 11.0034 24.6166C11.1165 24.68 11.2484 24.7015 11.3758 24.6773C11.5032 24.6531 11.618 24.5848 11.7 24.4843L16.5488 19.6198C15.075 19.4803 13.86 18.2495 13.8173 16.8073C13.805 16.424 13.8686 16.0421 14.0046 15.6835C14.1405 15.325 14.3461 14.9968 14.6094 14.7181C14.8727 14.4393 15.1885 14.2154 15.5388 14.0592C15.889 13.903 16.2667 13.8176 16.65 13.808C16.6792 13.8058 16.7085 13.8058 16.7378 13.808H19.5863C19.4369 12.5359 18.8223 11.3639 17.8606 10.5177C16.899 9.67159 15.6583 9.21105 14.3775 9.22479V9.22479ZM11.592 13.5223C11.331 14.24 10.7933 14.7035 10.3928 14.5573C9.99225 14.411 9.8775 13.709 10.1385 12.9823C10.3995 12.2555 10.9373 11.801 11.3378 11.9473C11.7383 12.0935 11.853 12.8045 11.592 13.5223ZM14.3123 13.5223C14.0513 14.24 13.5135 14.7035 13.113 14.5573C12.7125 14.411 12.5978 13.709 12.8588 12.9823C13.1198 12.2555 13.6575 11.801 14.058 11.9473C14.4585 12.0935 14.5755 12.8045 14.3123 13.5223Z" fill="white"/>
</g>
<defs>
<linearGradient id="paint0_linear" x1="0" y1="14.4" x2="28.8" y2="14.4" gradientUnits="userSpaceOnUse">
<stop stop-color="#344652"/>
<stop offset="1" stop-color="#333336"/>
</linearGradient>
<clipPath id="clip0">
<rect width="28.8" height="28.8" fill="white"/>
</clipPath>
</defs>
</svg>
