<?xml version="1.0" encoding="utf-8"?>
<!-- Generator: Adobe Illustrator 25.4.1, SVG Export Plug-In . SVG Version: 6.00 Build 0)  -->
<svg version="1.1" id="Layer_1" xmlns="http://www.w3.org/2000/svg" xmlns:xlink="http://www.w3.org/1999/xlink" x="0px" y="0px"
	 viewBox="0 0 256 256" style="enable-background:new 0 0 256 256;" xml:space="preserve">
<style type="text/css">
	.st0{fill:url(#SVGID_1_);}
	.st1{fill:#FFFFFF;}
	.st2{fill:#333336;}
	.st3{fill:#9750F1;}
</style>
<g>
	
		<linearGradient id="SVGID_1_" gradientUnits="userSpaceOnUse" x1="223.3854" y1="209.715" x2="32.9213" y2="49.459" gradientTransform="matrix(1 0 0 -1 0 258)">
		<stop  offset="0" style="stop-color:#B6509E"/>
		<stop  offset="1" style="stop-color:#2EBAC6"/>
	</linearGradient>
	<path class="st0" d="M128,256.6c70.7,0,128-57.3,128-128s-57.3-128-128-128S0,57.9,0,128.6S57.3,256.6,128,256.6z"/>
	<path class="st1" d="M184.1,179.4L140.8,74.8c-2.4-5.4-6.1-8.1-10.8-8.1h-3.8c-4.8,0-8.4,2.7-10.9,8.1l-18.8,45.6H82.2
		c-2.1,0-4,0.8-5.5,2.3c-1.5,1.4-2.3,3.4-2.3,5.5v0.1c0,2.1,0.8,4,2.3,5.5c1.5,1.4,3.4,2.3,5.5,2.3h7.7l-18,43.5c-0.3,1-0.5,2-0.5,3
		c0,2.4,0.7,4.3,2.1,5.8c1.4,1.5,3.3,2.2,5.7,2.2c1.6,0,3.2-0.5,4.5-1.5c1.4-1,2.3-2.3,3.1-3.9l19.8-49.1h13.7c2.1,0,4-0.8,5.5-2.3
		c1.5-1.4,2.3-3.4,2.3-5.5V128c0-2.1-0.8-4-2.3-5.5c-1.5-1.4-3.4-2.3-5.5-2.3h-7.3L128,82.6L169.2,185c0.7,1.6,1.7,3,3.1,3.9
		c1.3,0.9,2.9,1.5,4.5,1.5c2.4,0,4.4-0.7,5.7-2.2c1.4-1.5,2.1-3.4,2.1-5.8C184.6,181.4,184.5,180.4,184.1,179.4z"/>
	<g id="Layer_1-2">
		<path class="st2" d="M172.8,237.8c35.3,0,64-28.7,64-64s-28.7-64-64-64s-64,28.7-64,64S137.4,237.8,172.8,237.8z"/>
		<path class="st3" d="M212.6,178.6c-1.7-2.4-4.1-4.2-6.9-5.1c-0.6-0.2-0.9-0.9-0.7-1.5c0.1-0.3,0.4-0.5,0.7-0.7
			c5.6-2.5,8.3-8.1,8.3-16.9c0-8-1.6-14-5.1-17.8c-3.3-3.8-8.7-5.6-15.9-5.6h-44.2c-7.8,0-12,7.2-12.7,12.5c0,0.7,0.6,1.3,1.1,0.9
			c1.7-0.8,3.6-1.2,5.4-1.1c6.2,0,11,2.4,13.8,8.3c0.5,1.3,1.3,0.7,1.3,0c0.2-1.8,0.4-2.4,1.1-3.1s2.2-1.1,4.4-1.1h20.5
			c2.3-0.1,4.7,0.6,6.5,2c1.3,1.4,2,3.6,2,6.7c0,3.3-0.7,5.6-2,6.9s-3.4,2-6.3,2h-15.8c2.2,4.2,3.4,8.9,3.4,13.7v2h12.9
			c3.1,0,5.3,0.7,6.7,2.2s2.2,3.8,2.2,7.1s-0.7,5.6-2.2,7.1s-3.8,2.2-7.1,2.2h-19.8c-0.6-0.1-1.3,0.2-1.6,0.7
			c-1.1,1.1-2.3,2-3.6,2.9c-0.4,0.3-0.7,0.8-0.7,1.3c-0.2,1.8-1.3,6.7-6.7,7.2c-3.4,0.3-6.6-1.8-7.6-5.1c-0.2-0.8-0.3-1.6-0.4-2.4
			c0-0.4-0.4-0.7-0.8-0.6c-0.3,0-0.6,0.3-0.6,0.6c0,0.8-0.2,1.6-0.4,2.4c-0.5,1.5-1.6,2.9-2.9,3.8c-0.5,0.3-0.7,0.9-0.4,1.4
			c0.1,0.1,0.1,0.2,0.2,0.3c2.2,2.7,5.4,4,10.1,4h45.3c8,0,13.6-2,16.7-5.8c3.1-4,4.5-9.8,4.5-17.6
			C215.7,186.4,214.6,181.9,212.6,178.6z"/>
		<path class="st1" d="M163.5,165.2c-1.5-2.3-3.4-4.3-5.6-6c-0.9-0.7-1.8-1.3-2.9-2c-0.5-0.2-0.9-0.7-0.9-1.3
			c-1.3-5-5.8-8.6-11.1-8.5c-2.4,0-4.7,0.8-6.7,2.2c-2.1,1.6-3.6,3.8-4.4,6.4c-0.2,0.5-0.5,0.9-0.9,1.3
			c-7.8,4.3-12.7,12.6-12.7,21.6c0,5.4,1.8,10.6,5.1,14.9l0.2,0.2c0.4,0.6,1.1,0.9,1.8,0.9c1.3,0,2.3-1.1,2.4-2.4v-3.6
			c0-1.1,0.9-2,2-2c1.1,0,2,0.9,2,2v15c0,1.9,1.5,3.4,3.4,3.4l0,0c0.6,0,1.2-0.2,1.6-0.5c0.7-0.4,1.2-1,1.4-1.8
			c0.1-0.3,0.2-0.7,0.2-1.1c0-2.6,2.1-4.7,4.7-4.7c2.6,0,4.7,2.1,4.7,4.7c0,0.4,0,0.7,0.2,1.1c0.4,1.4,1.8,2.4,3.3,2.4
			c1.9,0,3.4-1.5,3.4-3.4l0,0v-15.2c0-1.1,0.9-2,2-2c0.6,0.1,1.2,0.3,1.6,0.7c0.4,0.3,0.6,0.8,0.5,1.3v4c0,1.3,1.1,2.3,2.4,2.4
			c0.7,0,1.4-0.3,1.8-0.9l0.2-0.2c2.9-3.8,4.6-8.3,4.9-13v-2C167.8,174,166.2,169.3,163.5,165.2z M143.1,173.8
			c-2.3,0.1-4.7-0.5-6.7-1.6c-2.7-1.4-4.7-3.8-4.7-6.5s1.8-5.1,4.7-6.5c2.1-1,4.4-1.6,6.7-1.6c6.3,0,11.4,3.6,11.4,8
			S149.2,173.8,143.1,173.8L143.1,173.8z"/>
		<path class="st1" d="M148.1,163.8c-1.1,0-2,0.9-2,2s0.9,2,2,2s2-0.9,2-2S149.2,163.8,148.1,163.8z"/>
		<path class="st1" d="M137.8,163.8c-0.6,0-1.2,0.3-1.6,0.7c-0.5,0.8-0.5,1.8,0,2.5c0.4,0.5,1,0.8,1.6,0.7c1.1,0,2-0.9,2-2
			S138.9,163.8,137.8,163.8L137.8,163.8z"/>
	</g>
</g>
</svg>
