<svg width="48" height="48" viewBox="0 0 48 48" fill="none" xmlns="http://www.w3.org/2000/svg">
<path d="M24 48C37.2548 48 48 37.2548 48 24C48 10.7452 37.2548 0 24 0C10.7452 0 0 10.7452 0 24C0 37.2548 10.7452 48 24 48Z" fill="url(#paint0_linear_798_38998)"/>
<path d="M34.5022 33.5617L26.3847 13.9436C25.926 12.9299 25.2479 12.433 24.3504 12.433H23.6324C22.7349 12.433 22.0568 12.9299 21.598 13.9436L18.0681 22.4907H15.3952C15.0104 22.4922 14.6417 22.6454 14.3691 22.9171C14.0965 23.1887 13.9421 23.5569 13.9393 23.9417V23.9616C13.9421 24.3464 14.0965 24.7146 14.3691 24.9863C14.6417 25.2579 15.0104 25.4111 15.3952 25.4126H16.8309L13.4606 33.5617C13.3968 33.7405 13.3631 33.9286 13.3608 34.1184C13.3608 34.5756 13.5004 34.9334 13.7597 35.2116C14.019 35.4899 14.378 35.6289 14.8368 35.6289C15.138 35.6248 15.4305 35.5276 15.6742 35.3505C15.9335 35.1716 16.113 34.9133 16.2527 34.6151L19.9624 25.4123H22.5353C22.9201 25.4108 23.2888 25.2576 23.5614 24.9859C23.834 24.7143 23.9884 24.3461 23.9912 23.9613V23.9215C23.9884 23.5367 23.834 23.1685 23.5614 22.8968C23.2888 22.6252 22.9201 22.472 22.5353 22.4705H21.1592L23.9914 15.4144L31.71 34.6152C31.8496 34.9133 32.0291 35.1719 32.2884 35.3506C32.5322 35.5277 32.8248 35.6249 33.1261 35.6289C33.5849 35.6289 33.9439 35.4898 34.2032 35.2115C34.4625 34.9332 34.6021 34.5755 34.6021 34.1183C34.6096 33.9277 34.5755 33.7378 34.5022 33.5617Z" fill="white"/>
<defs>
<linearGradient id="paint0_linear_798_38998" x1="43.536" y1="10.896" x2="7.824" y2="40.944" gradientUnits="userSpaceOnUse">
<stop stop-color="#B6509E"/>
<stop offset="1" stop-color="#2EBAC6"/>
</linearGradient>
</defs>
</svg>
