<svg xmlns="http://www.w3.org/2000/svg" viewBox="0 0 256 256"><defs><style>.cls-1{fill:#e84142;}.cls-2{fill:#fff;}.cls-3{fill:#333336;}.cls-4{fill:#9750f1;}</style></defs><g id="Layer_2" data-name="Layer 2"><g id="Layer_1-2" data-name="Layer 1"><circle class="cls-1" cx="128" cy="128" r="128"/><path class="cls-2" d="M173.14,131.35c4.44-7.68,11.57-7.68,16,0l27.62,48.44c4.43,7.68.84,13.93-8,13.93H153.06c-8.76,0-12.36-6.25-8-13.93ZM119.73,37.81c4.43-7.68,11.47-7.68,15.9,0l6.15,11.42,14.77,25.5a26.36,26.36,0,0,1,0,23.09l-48.93,84.33a25.44,25.44,0,0,1-19.69,11.72H47.26c-8.86,0-12.5-6.15-8.07-13.93Z"/><path class="cls-3" d="M172.76,237.76a64,64,0,1,0-64-64A64,64,0,0,0,172.76,237.76Z"/><path class="cls-4" d="M212.65,178.65a12.91,12.91,0,0,0-6.89-5.07,1.17,1.17,0,0,1,0-2.18c5.62-2.53,8.34-8.15,8.34-16.85,0-8-1.63-14-5.07-17.76-3.27-3.8-8.7-5.61-15.95-5.61H148.87c-7.8,0-12,7.25-12.69,12.5,0,.73.55,1.27,1.09.91a12.11,12.11,0,0,1,5.44-1.09c6.16,0,11,2.35,13.77,8.33.54,1.27,1.27.73,1.27,0,.18-1.81.36-2.35,1.08-3.08s2.18-1.08,4.35-1.08h20.48a9.65,9.65,0,0,1,6.52,2c1.27,1.45,2,3.62,2,6.7,0,3.27-.72,5.62-2,6.89s-3.44,2-6.34,2H168.07A29.76,29.76,0,0,1,171.52,179v2h12.86c3.08,0,5.26.72,6.71,2.17s2.17,3.81,2.17,7.07-.72,5.62-2.17,7.07-3.81,2.17-7.07,2.17H164.27a1.76,1.76,0,0,0-1.63.72,27.64,27.64,0,0,1-3.63,2.9,1.86,1.86,0,0,0-.72,1.27c-.18,1.81-1.27,6.71-6.71,7.25a7.27,7.27,0,0,1-7.61-5.07,9.28,9.28,0,0,1-.36-2.36.73.73,0,0,0-1.45,0,12.57,12.57,0,0,1-.36,2.36,7.63,7.63,0,0,1-2.9,3.8,1,1,0,0,0-.18,1.63c2.17,2.72,5.44,4,10.15,4h45.3c8,0,13.59-2,16.67-5.8,3.08-4,4.53-9.78,4.53-17.58C215.73,186.44,214.64,181.91,212.65,178.65Z"/><path class="cls-2" d="M163.54,165.24a25.22,25.22,0,0,0-5.61-6c-.91-.72-1.82-1.26-2.9-2a1.35,1.35,0,0,1-.91-1.27,11.27,11.27,0,0,0-11.05-8.51,11.83,11.83,0,0,0-6.71,2.17A12.21,12.21,0,0,0,132,156a3.19,3.19,0,0,1-.9,1.27,24.67,24.67,0,0,0-12.69,21.56,24.17,24.17,0,0,0,5.08,14.86l.18.18a2.22,2.22,0,0,0,1.81.91,2.4,2.4,0,0,0,2.36-2.36V188.8a2,2,0,0,1,4,0v15a3.44,3.44,0,0,0,3.44,3.44,2.57,2.57,0,0,0,1.64-.54,2.93,2.93,0,0,0,1.45-1.81,2.34,2.34,0,0,0,.18-1.09,4.71,4.71,0,0,1,9.42,0,2.34,2.34,0,0,0,.18,1.09,3.31,3.31,0,0,0,3.26,2.35,3.44,3.44,0,0,0,3.44-3.44V188.62a2,2,0,0,1,2-2,2.75,2.75,0,0,1,1.63.73,1.64,1.64,0,0,1,.54,1.27v4a2.4,2.4,0,0,0,2.36,2.36,2.22,2.22,0,0,0,1.81-.91l.18-.18a23.93,23.93,0,0,0,4.89-13v-2A29.73,29.73,0,0,0,163.54,165.24Zm-20.47,8.52a13.11,13.11,0,0,1-6.71-1.63c-2.72-1.45-4.71-3.81-4.71-6.52s1.81-5.08,4.71-6.53a15.34,15.34,0,0,1,6.71-1.63c6.34,0,11.41,3.63,11.41,8S149.23,173.76,143.07,173.76Z"/><path class="cls-2" d="M148.14,163.79a2,2,0,1,0,2,2A2,2,0,0,0,148.14,163.79Z"/><path class="cls-2" d="M137.81,163.79a2.31,2.31,0,0,0-1.63.73,2.4,2.4,0,0,0,0,2.53,1.76,1.76,0,0,0,1.63.73,2,2,0,0,0,0-4Z"/></g></g></svg>