<svg xmlns="http://www.w3.org/2000/svg" viewBox="0 0 256 256"><defs><style>.cls-1{fill:#f5ac37;}.cls-2{fill:#fefefd;}.cls-3{fill:#333336;}.cls-4{fill:#9750f1;}.cls-5{fill:#fff;}</style></defs><g id="Layer_2" data-name="Layer 2"><g id="Layer_1-2" data-name="Layer 1"><path class="cls-1" d="M128,0A128,128,0,1,1,0,128,127.91,127.91,0,0,1,128,0Z"/><path class="cls-2" d="M132.62,136.89h48.71c1.07,0,1.43,0,1.78-1.42a103.47,103.47,0,0,0,0-14.94c0-1.06-.35-1.42-1.42-1.42H84.62c-1.06,0-1.42.36-1.42,1.42v14.23c0,1.77,0,1.77,1.78,1.77h47.64Zm44.8-34.13v-1.07a22.79,22.79,0,0,0-2.84-5,31.22,31.22,0,0,0-6.05-7.47A16.83,16.83,0,0,0,165,85.69c-6.76-6-15.29-10-24.18-12.09a58,58,0,0,0-13.51-1.42h-43c-1.07,0-1.43.35-1.43,1.42V102c0,1.07,0,1.43,1.43,1.43h92.44a1.27,1.27,0,0,0,1.07-.71Zm0,50.84H84.27c-1.07,0-1.78,0-1.78,1.78v27.73c0,1.42,0,1.78,1.78,1.78h40.89a28.28,28.28,0,0,0,5.68-.36,58.61,58.61,0,0,0,17.43-3.91,28.79,28.79,0,0,0,5.69-2.84h.71a52.42,52.42,0,0,0,22.4-22.4c.35-.36,1.06-1.42.35-1.78ZM66.84,199.11V155c0-1.06,0-1.06-1.42-1.06H48c-1.07,0-1.42,0-1.42-1.43V137.24H65.07c1.06,0,1.42,0,1.42-1.42V120.89c0-1.07,0-1.07-1.42-1.07H47.64c-1.06,0-1.42,0-1.42-1.42V104.18c0-.71,0-1.07,1.42-1.07H64.71c1.07,0,1.42,0,1.42-1.42V58.31c0-1.42,0-1.78,1.78-1.78H128A77.41,77.41,0,0,1,140.8,58c8.89,1.77,17.42,4.62,24.89,9.24a85,85,0,0,1,14.22,11,62,62,0,0,1,8.53,10.67,77.66,77.66,0,0,1,6.4,12.09,2.7,2.7,0,0,0,2.49,1.78h14.23c1.77,0,1.77,0,1.77,1.77v13.16c0,1.42-.35,1.78-1.77,1.78h-11c-1.06,0-1.42,0-1.42,1.42a98.55,98.55,0,0,1,0,14.58c0,1.42,0,1.42,1.42,1.42h12.8c.71.71,0,1.42,0,2.13v12.45c0,1.42-.35,1.77-1.77,1.77H196.27a2,2,0,0,0-2.49,1.43,64.43,64.43,0,0,1-16.71,24.53c-2.85,2.49-5.69,4.62-8.54,6.76-3.2,1.77-6.4,3.91-9.6,5.33a89.51,89.51,0,0,1-18.84,6c-5,1.43-11.38,1.78-17.42,1.78Z"/><path class="cls-3" d="M172.76,237.76a64,64,0,1,0-64-64A64,64,0,0,0,172.76,237.76Z"/><path class="cls-4" d="M212.65,178.65a12.91,12.91,0,0,0-6.89-5.07,1.17,1.17,0,0,1,0-2.18c5.62-2.53,8.34-8.15,8.34-16.85,0-8-1.63-14-5.07-17.76-3.27-3.8-8.7-5.61-15.95-5.61H148.87c-7.8,0-12,7.25-12.69,12.5,0,.73.55,1.27,1.09.91a12.11,12.11,0,0,1,5.44-1.09c6.16,0,11,2.35,13.77,8.33.54,1.27,1.27.73,1.27,0,.18-1.81.36-2.35,1.08-3.08s2.18-1.08,4.35-1.08h20.48a9.65,9.65,0,0,1,6.52,2c1.27,1.45,2,3.62,2,6.7,0,3.27-.72,5.62-2,6.89s-3.44,2-6.34,2H168.07A29.76,29.76,0,0,1,171.52,179v2h12.86c3.08,0,5.26.72,6.71,2.17s2.17,3.81,2.17,7.07-.72,5.62-2.17,7.07-3.81,2.17-7.07,2.17H164.27a1.76,1.76,0,0,0-1.63.72,27.64,27.64,0,0,1-3.63,2.9,1.86,1.86,0,0,0-.72,1.27c-.18,1.81-1.27,6.71-6.71,7.25a7.27,7.27,0,0,1-7.61-5.07,9.28,9.28,0,0,1-.36-2.36.73.73,0,0,0-1.45,0,12.57,12.57,0,0,1-.36,2.36,7.63,7.63,0,0,1-2.9,3.8,1,1,0,0,0-.18,1.63c2.17,2.72,5.44,4,10.15,4h45.3c8,0,13.59-2,16.67-5.8,3.08-4,4.53-9.78,4.53-17.58C215.73,186.44,214.64,181.91,212.65,178.65Z"/><path class="cls-5" d="M163.54,165.24a25.22,25.22,0,0,0-5.61-6c-.91-.72-1.82-1.26-2.9-2a1.35,1.35,0,0,1-.91-1.27,11.27,11.27,0,0,0-11.05-8.51,11.83,11.83,0,0,0-6.71,2.17A12.21,12.21,0,0,0,132,156a3.19,3.19,0,0,1-.9,1.27,24.67,24.67,0,0,0-12.69,21.56,24.17,24.17,0,0,0,5.08,14.86l.18.18a2.22,2.22,0,0,0,1.81.91,2.4,2.4,0,0,0,2.36-2.36V188.8a2,2,0,0,1,4,0v15a3.44,3.44,0,0,0,3.44,3.44,2.57,2.57,0,0,0,1.64-.54,2.93,2.93,0,0,0,1.45-1.81,2.34,2.34,0,0,0,.18-1.09,4.71,4.71,0,0,1,9.42,0,2.34,2.34,0,0,0,.18,1.09,3.31,3.31,0,0,0,3.26,2.35,3.44,3.44,0,0,0,3.44-3.44V188.62a2,2,0,0,1,2-2,2.75,2.75,0,0,1,1.63.73,1.64,1.64,0,0,1,.54,1.27v4a2.4,2.4,0,0,0,2.36,2.36,2.22,2.22,0,0,0,1.81-.91l.18-.18a23.93,23.93,0,0,0,4.89-13v-2A29.73,29.73,0,0,0,163.54,165.24Zm-20.47,8.52a13.11,13.11,0,0,1-6.71-1.63c-2.72-1.45-4.71-3.81-4.71-6.52s1.81-5.08,4.71-6.53a15.34,15.34,0,0,1,6.71-1.63c6.34,0,11.41,3.63,11.41,8S149.23,173.76,143.07,173.76Z"/><path class="cls-5" d="M148.14,163.79a2,2,0,1,0,2,2A2,2,0,0,0,148.14,163.79Z"/><path class="cls-5" d="M137.81,163.79a2.31,2.31,0,0,0-1.63.73,2.4,2.4,0,0,0,0,2.53,1.76,1.76,0,0,0,1.63.73,2,2,0,0,0,0-4Z"/></g></g></svg>