<svg width="48" height="48" viewBox="0 0 48 48" fill="none" xmlns="http://www.w3.org/2000/svg">
<circle cx="24" cy="24" r="24" fill="white"/>
<path d="M11.157 11.0221C10.1744 12.0538 9.36601 12.9158 9.35708 12.9337C9.34815 12.9515 10.2325 13.8225 11.3223 14.8586C12.412 15.8948 13.3544 16.8015 13.4214 16.864L13.5465 16.9801L13.3232 17.3508C12.3682 18.9296 11.7731 20.6995 11.5801 22.5344C11.3871 24.3694 11.601 26.2244 12.2066 27.9673C12.4628 28.6909 12.7826 29.3904 13.1624 30.0575C13.3232 30.3344 13.4036 30.513 13.3812 30.5488C13.3589 30.5845 12.3718 31.6296 11.1793 32.8757C9.98683 34.1218 9.00871 35.1535 8.99977 35.1759C8.99084 35.1982 12.3361 38.4273 12.6532 38.6953L12.7783 38.798L14.6675 36.8239C15.7037 35.7342 16.6774 34.7158 16.8292 34.5595L17.1061 34.2781L17.3652 34.4434C18.7006 35.2965 20.2593 35.886 21.9878 36.1942C22.8543 36.346 24.5068 36.3907 25.4268 36.279C27.2134 36.0736 28.9776 35.4796 30.4246 34.6042L30.8043 34.3764L31.2062 34.7694C32.0816 35.618 35.3554 38.731 35.3822 38.7444C35.418 38.7578 39.0044 35.0062 39 34.9615C38.9955 34.9392 36.5301 32.5765 35.0249 31.1562L34.5247 30.6828L34.7525 30.3076C36.6775 27.1142 37.075 23.233 35.8333 19.6599C35.6502 19.1374 35.1053 17.9627 34.7882 17.4223L34.6319 17.1543L36.7311 14.9524C37.8878 13.7465 38.8258 12.7416 38.8168 12.7238C38.7856 12.6434 35.1053 9.16411 35.0562 9.16411C35.0249 9.16411 34.0959 10.1065 32.9972 11.2633C31.8985 12.42 30.974 13.3669 30.9561 13.3758C30.9383 13.3848 30.8355 13.3312 30.7328 13.2597C30.2905 12.9822 29.8327 12.7302 29.3617 12.5049C28.2211 11.972 27.0081 11.6108 25.7618 11.433C25.0919 11.3347 23.082 11.3213 22.4568 11.4107C20.965 11.625 19.7502 11.9913 18.5041 12.6121C18.1468 12.7863 17.7269 13.0096 17.5661 13.1123L17.2758 13.291L16.9409 12.9649C16.7577 12.7863 15.9449 12.0136 15.132 11.2409C14.3191 10.4683 13.4973 9.68666 13.3008 9.49461L12.9435 9.14624L11.157 11.0221ZM24.8909 16.3549C26.1631 16.4981 27.3776 16.964 28.4193 17.7081C28.9642 18.0922 29.786 18.9141 30.1701 19.4589C32.3541 22.5496 31.9387 26.7569 29.1919 29.3295C26.8471 31.5224 23.4527 32.0093 20.5988 30.5532C18.5353 29.4992 17.0838 27.5698 16.6193 25.2562C16.4719 24.5237 16.4719 23.1481 16.6193 22.4156C16.7622 21.6966 16.9453 21.1829 17.2982 20.4639C17.9858 19.0798 19.0844 17.9421 20.4436 17.2065C21.8028 16.4709 23.3561 16.1735 24.8909 16.3549Z" fill="black"/>
</svg>
