<svg width="48" height="48" viewBox="0 0 48 48" fill="none" xmlns="http://www.w3.org/2000/svg">
<circle cx="24" cy="24" r="24" fill="white"/>
<path d="M13.4843 10.6171L11.8899 12.2128L13.9042 14.2211L15.9185 16.2293L15.7663 16.6783C15.529 17.3578 15.4621 17.8371 15.4682 18.7048C15.4682 19.3357 15.5047 19.6148 15.6264 20.1002C15.9189 21.2005 16.5057 22.2008 17.3242 22.9943C18.4683 24.1167 19.9897 24.7902 23.361 25.6517C26.988 26.58 27.6878 26.847 28.2781 27.5326C28.6371 27.9573 28.7649 28.3638 28.7345 29.0494C28.7041 29.8321 28.4971 30.2871 27.8764 30.8999C27.3774 31.3974 26.8236 31.7008 26.0386 31.907C25.4179 32.0709 23.7992 32.1376 23.0932 32.0223C21.0729 31.6947 19.8254 30.463 19.2898 28.2424C19.1742 27.7692 19.1499 27.7146 19.0221 27.7146C18.8395 27.7146 15.0787 28.0726 14.8292 28.115C14.5797 28.1575 14.5797 28.1939 14.7562 29.0919C14.9144 29.9049 15.2369 30.9242 15.5533 31.5916L15.7968 32.1012L13.8433 34.0488L11.8899 35.9964L13.4843 37.592L15.0848 39.1817L17.0991 37.1734L19.1194 35.1651L19.6063 35.3532C20.3505 35.6218 21.1187 35.8189 21.9005 35.9418C22.8437 36.0995 25.5457 36.1056 26.5559 35.9478C27.3409 35.8265 28.2781 35.602 28.7345 35.4321L29.0388 35.3168L30.9618 37.2341L32.8848 39.1513L34.4853 37.5738L36.0796 35.9964L34.2966 34.2005L32.5136 32.4106L32.7509 31.9252C33.0519 31.3225 33.2611 30.6783 33.3716 30.0141C33.469 29.3952 33.4203 27.7207 33.2803 27.1079C32.9799 25.7778 32.2511 24.5824 31.2052 23.7042C30.0611 22.7395 28.5093 22.1145 25.1015 21.253C21.438 20.3308 20.4096 19.8454 20.0505 18.8868C19.6002 17.6794 20.3791 16.6601 22.0952 16.2051C22.6247 16.0655 22.8133 16.0473 23.787 16.0412C24.6572 16.0352 24.9797 16.0594 25.3692 16.1505C26.3611 16.381 26.988 16.7936 27.4809 17.5459C27.7 17.8857 28.0773 18.8989 28.0773 19.1598C28.0748 19.1861 28.0778 19.2127 28.0862 19.2377C28.0946 19.2628 28.1081 19.2859 28.1259 19.3054C28.1746 19.3357 32.6353 19.1719 32.7387 19.1355C32.8969 19.0749 32.6048 17.4003 32.3067 16.648C32.2442 16.5067 32.1933 16.3606 32.1545 16.2111C32.1545 16.1808 33.043 15.2707 34.1323 14.1847L36.1101 12.2128L34.5157 10.6232L32.9152 9.02753L30.9009 11.0358L28.8866 13.044L28.4971 12.8924C27.061 12.3281 25.0345 12.0672 22.9837 12.1886C21.6084 12.2674 20.5069 12.4919 19.5028 12.8924L19.1134 13.044L17.0991 11.0358L15.0848 9.02753L13.4843 10.6171Z" fill="black"/>
</svg>
