<svg width="48" height="48" viewBox="0 0 48 48" fill="none" xmlns="http://www.w3.org/2000/svg">
<circle cx="24" cy="24" r="24" fill="#13274F"/>
<path fill-rule="evenodd" clip-rule="evenodd" d="M40.8382 21.6458C40.2363 20.2556 40.2363 20.2556 24.1109 14.4302C15.9939 11.4985 14.4877 8.66799 20.3626 7.38691C20.6488 7.32473 20.9371 7.27018 21.2284 7.22254C22.1266 7.07636 23.0488 7 23.9884 7C32.5851 7 39.6912 13.3716 40.8382 21.6458Z" fill="#F9D85E"/>
<path fill-rule="evenodd" clip-rule="evenodd" d="M40.8354 21.6391C40.3667 20.5562 40.2474 20.3147 32.502 17.4736C34.1383 21.6114 37.0223 23.8256 40.7867 26.7001C40.927 25.8209 41.0001 24.9191 41.0001 23.9998C41.0001 23.1987 40.943 22.4107 40.8354 21.6391Z" fill="#EF7730"/>
<path fill-rule="evenodd" clip-rule="evenodd" d="M25.634 28.2484C18.2336 24.9407 13.6151 18.228 13.3457 11.4721C13.334 11.187 12.9951 11.0451 12.7806 11.2335C9.2035 14.3779 6.95805 18.9986 7.00059 24.1433C7.07623 33.3033 14.5177 40.8232 23.6842 40.997C31.0856 41.1367 37.4347 36.5538 39.915 30.0607C40.0132 29.8044 39.7852 29.5393 39.5187 29.6062C35.207 30.6905 30.2849 30.3273 25.634 28.2484Z" fill="#F9D85E"/>
</svg>
