<svg width="48" height="48" viewBox="0 0 48 48" fill="none" xmlns="http://www.w3.org/2000/svg">
<circle cx="24" cy="24" r="24" fill="black"/>
<path d="M24.0933 33.4825H24.0606C22.815 33.4978 21.5788 33.2658 20.4235 32.8C19.2683 32.3341 18.217 31.6436 17.3305 30.7685C16.444 29.8934 15.74 28.8511 15.2593 27.7019C14.7786 26.5528 14.5307 25.3196 14.53 24.074C14.5293 22.8283 14.7758 21.5949 15.2553 20.4452C15.7347 19.2955 16.4375 18.2524 17.323 17.3763C18.2085 16.5002 19.2591 15.8086 20.4138 15.3414C21.5686 14.8743 22.8045 14.6409 24.0501 14.6549V14.6549C25.5424 14.6537 27.0136 15.0074 28.3422 15.6869C29.6708 16.3664 30.8187 17.3522 31.6912 18.5628C32.5637 19.7735 33.1358 21.1743 33.3601 22.6496C33.5844 24.1249 33.4546 25.6325 32.9814 27.0478L37.2114 32.7297C39.2469 29.6424 40.1316 25.9376 39.7108 22.2638C39.2899 18.5899 37.5903 15.1811 34.9095 12.6341C32.2286 10.0871 28.7374 8.56416 25.0468 8.33186C21.3562 8.09955 17.7016 9.1727 14.7225 11.3634C11.7434 13.5542 9.62978 16.7229 8.75158 20.315C7.87338 23.9071 8.28656 27.6936 9.9188 31.0117C11.551 34.3298 14.2983 36.9682 17.6798 38.4648C21.0612 39.9615 24.8614 40.2212 28.415 39.1984C28.2526 39.0256 24.0946 33.4772 24.0946 33.4772" fill="white"/>
<path d="M31.5295 28.594L31.3371 28.3321C31.29 28.2719 31.2271 28.2012 31.1617 28.1253C31.0097 27.9563 30.8489 27.7955 30.6799 27.6435C30.6052 27.5767 30.5254 27.5126 30.4403 27.4379L30.3094 27.3306L30.1785 27.2259C30.0824 27.1552 29.9816 27.0845 29.876 27.0138C28.6284 26.1994 27.2891 25.7988 25.6748 25.7988H21.5535C21.5535 25.7988 28.3312 34.8689 30.0069 37.1522C30.1968 37.4146 30.4093 37.6599 30.6419 37.8853C30.672 37.9141 30.7034 37.9442 30.7362 37.973C30.8108 38.0398 30.8906 38.104 30.9757 38.1799L31.1067 38.2872L31.2376 38.392C31.3336 38.4627 31.4344 38.5334 31.54 38.6041C32.7896 39.4176 34.2529 39.8409 35.7438 39.8203H39.8639L31.5295 28.594Z" fill="#55B7EB"/>
</svg>
