<svg width="48" height="48" viewBox="0 0 48 48" fill="none" xmlns="http://www.w3.org/2000/svg">
<circle cx="24" cy="24" r="24" fill="#1B5AFE"/>
<path d="M20.2397 37.5959C20.2319 37.4585 20.2134 37.3035 20.2134 37.1426C20.2134 31.4247 20.1754 25.7068 20.2309 19.9841C20.2563 17.4892 21.3248 15.3961 23.2424 13.7953C24.8247 12.4743 26.6732 11.8396 28.7517 11.8581C31.3343 11.8805 33.9188 11.8718 36.5003 11.8581C36.9391 11.8581 37.0794 11.9673 37.0746 12.4304C37.0492 14.8989 37.0629 17.3684 37.0609 19.8398C37.0609 20.5008 37.0541 20.5047 36.3785 20.5056C34.0387 20.5056 31.6989 20.5183 29.3591 20.4939C28.8599 20.4891 28.7264 20.6489 28.7283 21.1335C28.7439 26.1368 28.7381 31.14 28.7381 36.1472C28.7542 36.5372 28.7477 36.9278 28.7186 37.3171C28.7039 37.4507 28.5128 37.669 28.4007 37.67C25.7207 37.6846 23.0387 37.6749 20.3616 37.67C20.3304 37.6583 20.3031 37.63 20.2397 37.5959Z" fill="white"/>
<path d="M11.8348 16.1867C11.8348 14.9525 11.8485 13.7182 11.827 12.482C11.8192 12.0375 11.9313 11.8513 12.4227 11.8552C14.8902 11.8776 17.3577 11.8737 19.8253 11.8552C20.2513 11.8552 20.4005 11.9858 20.38 12.4157C20.2825 14.5927 19.3709 16.408 17.9086 17.9728C16.6061 19.364 14.9477 20.0757 13.1051 20.4101C12.8003 20.4506 12.4933 20.4741 12.1858 20.4803C11.8524 20.5027 11.8329 20.2784 11.8329 20.0318C11.8358 18.7508 11.8339 17.4668 11.8348 16.1867Z" fill="white"/>
</svg>
