<?xml version="1.0" encoding="utf-8"?>
<!-- Generator: Adobe Illustrator 25.4.1, SVG Export Plug-In . SVG Version: 6.00 Build 0)  -->
<svg version="1.1" id="Layer_1" xmlns="http://www.w3.org/2000/svg" xmlns:xlink="http://www.w3.org/1999/xlink" x="0px" y="0px"
	 viewBox="0 0 256 256" style="enable-background:new 0 0 256 256;" xml:space="preserve">
<style type="text/css">
	.st0{fill:#1B5AFE;}
	.st1{fill:#FFFFFF;}
	.st2{fill:#333336;}
	.st3{fill:#9750F1;}
</style>
<g>
	<g>
		<circle class="st0" cx="128" cy="128" r="128"/>
		<path class="st1" d="M107.9,200.5c0-0.7-0.1-1.6-0.1-2.4c0-30.5-0.2-61,0.1-91.5c0.1-13.3,5.8-24.5,16.1-33
			c8.4-7,18.3-10.4,29.4-10.3c13.8,0.1,27.6,0.1,41.3,0c2.3,0,3.1,0.6,3.1,3.1c-0.1,13.2-0.1,26.3-0.1,39.5c0,3.5,0,3.5-3.6,3.6
			c-12.5,0-25,0.1-37.4-0.1c-2.7,0-3.4,0.8-3.4,3.4c0.1,26.7,0.1,53.4,0.1,80.1c0.1,2.1,0.1,4.2-0.1,6.2c-0.1,0.7-1.1,1.9-1.7,1.9
			c-14.3,0.1-28.6,0-42.9,0C108.4,200.8,108.3,200.7,107.9,200.5z"/>
		<path class="st1" d="M63.1,86.3c0-6.6,0.1-13.2,0-19.8c0-2.4,0.6-3.4,3.2-3.3c13.2,0.1,26.3,0.1,39.5,0c2.3,0,3.1,0.7,3,3
			c-0.5,11.6-5.4,21.3-13.2,29.6c-6.9,7.4-15.8,11.2-25.6,13c-1.6,0.2-3.3,0.3-4.9,0.4c-1.8,0.1-1.9-1.1-1.9-2.4
			C63.1,100,63.1,93.2,63.1,86.3z"/>
	</g>
	<g id="Layer_1-2">
		<path class="st2" d="M172.8,237.8c35.3,0,64-28.7,64-64s-28.7-64-64-64s-64,28.7-64,64S137.4,237.8,172.8,237.8z"/>
		<path class="st3" d="M212.6,178.6c-1.7-2.4-4.1-4.2-6.9-5.1c-0.6-0.2-0.9-0.9-0.7-1.5c0.1-0.3,0.4-0.5,0.7-0.7
			c5.6-2.5,8.3-8.1,8.3-16.9c0-8-1.6-14-5.1-17.8c-3.3-3.8-8.7-5.6-15.9-5.6h-44.2c-7.8,0-12,7.2-12.7,12.5c0,0.7,0.6,1.3,1.1,0.9
			c1.7-0.8,3.6-1.2,5.4-1.1c6.2,0,11,2.4,13.8,8.3c0.5,1.3,1.3,0.7,1.3,0c0.2-1.8,0.4-2.4,1.1-3.1s2.2-1.1,4.4-1.1h20.5
			c2.3-0.1,4.7,0.6,6.5,2c1.3,1.4,2,3.6,2,6.7c0,3.3-0.7,5.6-2,6.9s-3.4,2-6.3,2h-15.8c2.2,4.2,3.4,8.9,3.4,13.7v2h12.9
			c3.1,0,5.3,0.7,6.7,2.2s2.2,3.8,2.2,7.1s-0.7,5.6-2.2,7.1s-3.8,2.2-7.1,2.2h-19.8c-0.6-0.1-1.3,0.2-1.6,0.7
			c-1.1,1.1-2.3,2-3.6,2.9c-0.4,0.3-0.7,0.8-0.7,1.3c-0.2,1.8-1.3,6.7-6.7,7.2c-3.4,0.3-6.6-1.8-7.6-5.1c-0.2-0.8-0.3-1.6-0.4-2.4
			c0-0.4-0.4-0.7-0.8-0.6c-0.3,0-0.6,0.3-0.6,0.6c0,0.8-0.2,1.6-0.4,2.4c-0.5,1.5-1.6,2.9-2.9,3.8c-0.5,0.3-0.7,0.9-0.4,1.4
			c0.1,0.1,0.1,0.2,0.2,0.3c2.2,2.7,5.4,4,10.1,4h45.3c8,0,13.6-2,16.7-5.8c3.1-4,4.5-9.8,4.5-17.6
			C215.7,186.4,214.6,181.9,212.6,178.6z"/>
		<path class="st1" d="M163.5,165.2c-1.5-2.3-3.4-4.3-5.6-6c-0.9-0.7-1.8-1.3-2.9-2c-0.5-0.2-0.9-0.7-0.9-1.3
			c-1.3-5-5.8-8.6-11.1-8.5c-2.4,0-4.7,0.8-6.7,2.2c-2.1,1.6-3.6,3.8-4.4,6.4c-0.2,0.5-0.5,0.9-0.9,1.3
			c-7.8,4.3-12.7,12.6-12.7,21.6c0,5.4,1.8,10.6,5.1,14.9l0.2,0.2c0.4,0.6,1.1,0.9,1.8,0.9c1.3,0,2.3-1.1,2.4-2.4v-3.6
			c0-1.1,0.9-2,2-2s2,0.9,2,2v15c0,1.9,1.5,3.4,3.4,3.4l0,0c0.6,0,1.2-0.2,1.6-0.5c0.7-0.4,1.2-1,1.4-1.8c0.1-0.3,0.2-0.7,0.2-1.1
			c0-2.6,2.1-4.7,4.7-4.7c2.6,0,4.7,2.1,4.7,4.7c0,0.4,0,0.7,0.2,1.1c0.4,1.4,1.8,2.4,3.3,2.4c1.9,0,3.4-1.5,3.4-3.4l0,0v-15.2
			c0-1.1,0.9-2,2-2c0.6,0.1,1.2,0.3,1.6,0.7c0.4,0.3,0.6,0.8,0.5,1.3v4c0,1.3,1.1,2.3,2.4,2.4c0.7,0,1.4-0.3,1.8-0.9l0.2-0.2
			c2.9-3.8,4.6-8.3,4.9-13v-2C167.8,174,166.2,169.3,163.5,165.2z M143.1,173.8c-2.3,0.1-4.7-0.5-6.7-1.6c-2.7-1.4-4.7-3.8-4.7-6.5
			s1.8-5.1,4.7-6.5c2.1-1,4.4-1.6,6.7-1.6c6.3,0,11.4,3.6,11.4,8S149.2,173.8,143.1,173.8L143.1,173.8z"/>
		<path class="st1" d="M148.1,163.8c-1.1,0-2,0.9-2,2s0.9,2,2,2s2-0.9,2-2S149.2,163.8,148.1,163.8z"/>
		<path class="st1" d="M137.8,163.8c-0.6,0-1.2,0.3-1.6,0.7c-0.5,0.8-0.5,1.8,0,2.5c0.4,0.5,1,0.8,1.6,0.7c1.1,0,2-0.9,2-2
			S138.9,163.8,137.8,163.8L137.8,163.8z"/>
	</g>
</g>
</svg>
