<svg xmlns="http://www.w3.org/2000/svg" viewBox="0 0 256 256"><defs><style>.cls-1{fill:#f5ac37;}.cls-2{fill:#fefefd;}.cls-3{fill:#333538;}.cls-4{fill:#a7ff58;}.cls-5{fill:#fff;}</style></defs><g id="Layer_2" data-name="Layer 2"><g id="Layer_1-2" data-name="Layer 1"><path class="cls-1" d="M128,0A128,128,0,1,1,0,128,127.91,127.91,0,0,1,128,0Z"/><path class="cls-2" d="M132.62,136.89h48.71c1.07,0,1.43,0,1.78-1.42a103.47,103.47,0,0,0,0-14.94c0-1.06-.35-1.42-1.42-1.42H84.62c-1.06,0-1.42.36-1.42,1.42v14.23c0,1.77,0,1.77,1.78,1.77h47.64Zm44.8-34.13v-1.07a22.79,22.79,0,0,0-2.84-5,31.22,31.22,0,0,0-6.05-7.47A16.83,16.83,0,0,0,165,85.69c-6.76-6-15.29-10-24.18-12.09a58,58,0,0,0-13.51-1.42h-43c-1.07,0-1.43.35-1.43,1.42V102c0,1.07,0,1.43,1.43,1.43h92.44a1.27,1.27,0,0,0,1.07-.71Zm0,50.84H84.27c-1.07,0-1.78,0-1.78,1.78v27.73c0,1.42,0,1.78,1.78,1.78h40.89a28.28,28.28,0,0,0,5.68-.36,58.61,58.61,0,0,0,17.43-3.91,28.79,28.79,0,0,0,5.69-2.84h.71a52.42,52.42,0,0,0,22.4-22.4c.35-.36,1.06-1.42.35-1.78ZM66.84,199.11V155c0-1.06,0-1.06-1.42-1.06H48c-1.07,0-1.42,0-1.42-1.43V137.24H65.07c1.06,0,1.42,0,1.42-1.42V120.89c0-1.07,0-1.07-1.42-1.07H47.64c-1.06,0-1.42,0-1.42-1.42V104.18c0-.71,0-1.07,1.42-1.07H64.71c1.07,0,1.42,0,1.42-1.42V58.31c0-1.42,0-1.78,1.78-1.78H128A77.41,77.41,0,0,1,140.8,58c8.89,1.77,17.42,4.62,24.89,9.24a85,85,0,0,1,14.22,11,62,62,0,0,1,8.53,10.67,77.66,77.66,0,0,1,6.4,12.09,2.7,2.7,0,0,0,2.49,1.78h14.23c1.77,0,1.77,0,1.77,1.77v13.16c0,1.42-.35,1.78-1.77,1.78h-11c-1.06,0-1.42,0-1.42,1.42a98.55,98.55,0,0,1,0,14.58c0,1.42,0,1.42,1.42,1.42h12.8c.71.71,0,1.42,0,2.13v12.45c0,1.42-.35,1.77-1.77,1.77H196.27a2,2,0,0,0-2.49,1.43,64.43,64.43,0,0,1-16.71,24.53c-2.85,2.49-5.69,4.62-8.54,6.76-3.2,1.77-6.4,3.91-9.6,5.33a89.51,89.51,0,0,1-18.84,6c-5,1.43-11.38,1.78-17.42,1.78Z"/><circle class="cls-3" cx="172.55" cy="173.55" r="64"/><path class="cls-4" d="M123,181.84l28.68-28.71h0v0h0a29.19,29.19,0,0,1,44.75,3.77c.08.08.18.16.26.25a10.48,10.48,0,0,0,18.52-6.72,13,13,0,0,0-2.21-6.45,50.2,50.2,0,0,0-77.21-4.58,49.8,49.8,0,0,0-13.36,37.81C122.59,178.75,122.77,180.3,123,181.84Z"/><path class="cls-4" d="M219.74,179.4a7.73,7.73,0,0,0-6.17-3H183.24l-.21,0a7.84,7.84,0,0,0-7.83,8.08c.12,4.05,4,7.59,8.28,7.59h2.11a4.09,4.09,0,0,1,2.88,7l-24.08,24.12c1.53.25,3.06.44,4.6.54a50.3,50.3,0,0,0,52.14-37.39A8,8,0,0,0,219.74,179.4Z"/><path class="cls-5" d="M172.26,149.9a21.9,21.9,0,0,0-11.78,3.86l-.29.2a55.39,55.39,0,0,0-8.44,6.9L119.9,192.64c-1.44,1.43-.53,5.28,3.95,3.43l4.26-1.57c4.47-1.22,7.75-.92,10.21,2.31,2.1,2.75.74,7.26.74,7.26-1,3.19,1.47,5.37,4.16,4.31l1.71-.63A8.36,8.36,0,0,1,155.24,212a7.47,7.47,0,0,1,.51,5.34h0a2.52,2.52,0,0,0,4.23,2.42l22.22-22.26c-6.71-.64-12.31-6.28-12.51-12.87a13.32,13.32,0,0,1,12.94-13.73,2.57,2.57,0,0,1,.4,0H196.1A23.74,23.74,0,0,0,172.26,149.9Zm-12.75,19.7c-1.2,3.28-3.65,5.4-5.49,4.73s-2.36-3.87-1.17-7.16,3.66-5.4,5.5-4.73S160.71,166.31,159.51,169.6Zm12.45,0c-1.19,3.28-3.65,5.4-5.49,4.73s-2.36-3.87-1.16-7.16,3.65-5.4,5.49-4.73S173.16,166.31,172,169.6Z"/></g></g></svg>