<svg xmlns="http://www.w3.org/2000/svg" viewBox="0 0 256 256"><defs><style>.cls-1{fill:#fff;}.cls-2{fill:#343434;}.cls-3{fill:#8c8c8c;}.cls-4{fill:#3d3d3b;}.cls-5{fill:#141414;}.cls-6{fill:#393939;}.cls-7{fill:#333538;}.cls-8{fill:#a7ff58;}</style></defs><g id="Layer_2" data-name="Layer 2"><g id="Layer_1-2" data-name="Layer 1"><circle class="cls-1" cx="128" cy="128" r="128"/><path class="cls-2" d="M128,28.78l-1.33,4.52V164.52l1.33,1.32,60.91-36Z"/><path class="cls-3" d="M128,28.78,67.07,129.84l60.91,36V28.78Z"/><path class="cls-4" d="M128,177.38l-.75.91V225l.75,2.18,61-85.83Z"/><path class="cls-3" d="M128,227.22V177.38l-60.91-36Z"/><path class="cls-5" d="M128,165.84l60.91-36L128,102.16Z"/><path class="cls-6" d="M67.07,129.84l60.91,36V102.16Z"/><circle class="cls-7" cx="172.71" cy="173.71" r="64"/><path class="cls-8" d="M123.19,182l28.68-28.71h0l0,0h0A29.19,29.19,0,0,1,196.64,157a2.13,2.13,0,0,1,.26.26,10.49,10.49,0,0,0,18.53-6.73,13.1,13.1,0,0,0-2.21-6.45A50.22,50.22,0,0,0,136,139.54a49.82,49.82,0,0,0-13.37,37.82C122.75,178.91,122.93,180.46,123.19,182Z"/><path class="cls-8" d="M219.9,179.56a7.74,7.74,0,0,0-6.16-3H183.4l-.2,0a7.84,7.84,0,0,0-7.84,8.08c.12,4,4,7.59,8.28,7.59h2.11a4.07,4.07,0,0,1,2.88,7l-24.08,24.13c1.53.25,3.06.43,4.6.53a50.29,50.29,0,0,0,52.14-37.38A7.91,7.91,0,0,0,219.9,179.56Z"/><path class="cls-1" d="M172.42,150.06a21.9,21.9,0,0,0-11.78,3.86l-.29.2a55.88,55.88,0,0,0-8.44,6.9l-31.85,31.79c-1.44,1.43-.53,5.27,4,3.43l4.26-1.58c4.48-1.21,7.76-.91,10.21,2.31,2.1,2.76.74,7.27.74,7.27-1,3.19,1.47,5.37,4.16,4.3l1.71-.63a8.37,8.37,0,0,1,10.31,4.27,7.39,7.39,0,0,1,.51,5.33h0a2.52,2.52,0,0,0,4.23,2.42l22.22-22.25c-6.71-.65-12.3-6.28-12.5-12.88a13.32,13.32,0,0,1,12.93-13.73,2.85,2.85,0,0,1,.41,0h13.06A23.75,23.75,0,0,0,172.42,150.06Zm-12.75,19.7c-1.19,3.28-3.65,5.41-5.49,4.74s-2.36-3.88-1.16-7.16,3.65-5.41,5.49-4.74S160.87,166.47,159.67,169.76Zm12.46,0c-1.2,3.28-3.66,5.41-5.5,4.74s-2.36-3.88-1.16-7.16,3.65-5.41,5.49-4.74S173.32,166.47,172.13,169.76Z"/></g></g></svg>