<svg xmlns="http://www.w3.org/2000/svg" viewBox="0 0 256 256"><defs><style>.cls-1{fill:#57b2e4;}.cls-2{fill:#fff;}.cls-3{fill:#333538;}.cls-4{fill:#a7ff58;}</style></defs><g id="Layer_2" data-name="Layer 2"><g id="Layer_1-2" data-name="Layer 1"><circle class="cls-1" cx="128" cy="128" r="128"/><path id="Combined-Shape" class="cls-2" d="M119.8,38.8a17.8,17.8,0,0,1,15.6,0h0l45,23.6c2.6,1.4,4.2,3.6,4.4,5.6h0V187.2h0a7.34,7.34,0,0,1-4.4,6h0l-45,23.8a17.8,17.8,0,0,1-15.6,0h0L75,193.4c-2.8-1.6-4.2-3.8-4.4-6.2v.2h0V68.2h0c.2-2.2,1.6-4.2,4.4-5.6h0ZM77.4,134.6v52.2l42.4,22.4c2.4,1.4,5,2.6,7.4,2.6h.2c2.2,0,4.4-1,6.6-2l.8-.4L178,186.6V135l-42,22a18.79,18.79,0,0,1-15.4.2l-.2-.2Zm-14,50.2c0,4.6.6,7.6,1.6,9.6.8,1.8,2.2,3,4.6,4.6h.2l1.8,1.2.8.6,2.6,1.6-3.6,6-2.8-1.8-.4-.2c-.8-.6-1.6-1-2.2-1.4-6.8-4.6-9.4-9.6-9.4-19.8v-.4Zm68-81.8v48.4c.4-.2.8-.2,1.2-.4h0l45-23.6h0l-45-24A2.84,2.84,0,0,0,131.4,103Zm-6.8,0c-.4.2-.6.2-1,.4h0L78.6,127h0l45,23.6c.2.2.6.2,1,.4ZM77.4,76.4v43.2L118.6,98Zm100.6,0L137,97.8l41,21.4ZM132,45a11.7,11.7,0,0,0-9,0h0L78.2,68.6h0l45,23.6a11.7,11.7,0,0,0,9,0h0l45-23.6h0Zm52.8,2.6,2.8,1.8.4.2c.8.6,1.6,1,2.2,1.4,6.8,4.6,9.4,9.6,9.4,19.8v.4h-7c0-4.6-.6-7.6-1.6-9.6-.8-1.8-2.2-3-4.6-4.6h-.2l-1.8-1.2-.8-.6L181,53.6Z"/><circle class="cls-3" cx="172.76" cy="173.71" r="64"/><path class="cls-4" d="M123.23,182l28.68-28.71h0l0,0h0A29.19,29.19,0,0,1,196.68,157a2.13,2.13,0,0,1,.26.26,10.49,10.49,0,0,0,18.53-6.73,13.1,13.1,0,0,0-2.21-6.45,50.22,50.22,0,0,0-77.21-4.58,49.86,49.86,0,0,0-13.37,37.82C122.79,178.91,123,180.46,123.23,182Z"/><path class="cls-4" d="M219.94,179.56a7.73,7.73,0,0,0-6.16-3H183.44l-.2,0a7.82,7.82,0,0,0-7.83,8.08c.12,4,4,7.59,8.27,7.59h2.11a4.07,4.07,0,0,1,2.88,7L164.6,223.32c1.52.25,3.06.43,4.6.53a50.29,50.29,0,0,0,52.14-37.38A7.94,7.94,0,0,0,219.94,179.56Z"/><path class="cls-2" d="M172.47,150.06a22,22,0,0,0-11.79,3.86l-.29.2A55.8,55.8,0,0,0,152,161L120.1,192.81c-1.43,1.43-.52,5.27,4,3.43l4.27-1.58c4.47-1.21,7.75-.91,10.21,2.31,2.09,2.76.73,7.27.73,7.27-1,3.19,1.48,5.37,4.16,4.3l1.71-.63a8.36,8.36,0,0,1,10.31,4.27,7.34,7.34,0,0,1,.51,5.33h0a2.52,2.52,0,0,0,4.23,2.42l22.22-22.25c-6.7-.65-12.3-6.28-12.5-12.88a13.32,13.32,0,0,1,12.94-13.73,2.58,2.58,0,0,1,.4,0H196.3A23.75,23.75,0,0,0,172.47,150.06Zm-12.75,19.7c-1.2,3.28-3.66,5.4-5.5,4.74s-2.36-3.88-1.16-7.16,3.65-5.41,5.49-4.74S160.91,166.47,159.72,169.76Zm12.45,0c-1.2,3.28-3.66,5.4-5.49,4.74s-2.36-3.88-1.17-7.16,3.66-5.41,5.5-4.74S173.37,166.47,172.17,169.76Z"/></g></g></svg>