<svg xmlns="http://www.w3.org/2000/svg" viewBox="0 0 256 256"><defs><style>.cls-1{fill:#fff;}.cls-2{fill:#2a5ada;}.cls-3{fill:#333538;}.cls-4{fill:#a7ff58;}</style></defs><g id="Layer_2" data-name="Layer 2"><g id="Layer_1-2" data-name="Layer 1"><path class="cls-1" d="M128,0A128,128,0,1,1,0,128,127.91,127.91,0,0,1,128,0Z"/><g id="Layer_2-2" data-name="Layer 2"><g id="Layer_1-2-2" data-name="Layer 1-2"><path class="cls-2" d="M128,13.56,107,25.63,49.78,58.71l-21,12.07V185.22l21,12.07,57.75,33.08,21,12.07,21-12.07,56.7-33.08,21-12.07V70.78l-21-12.07L149,25.63ZM70.78,161.07V94.93L128,61.86l57.22,33.07v66.14L128,194.14Z"/></g></g><circle class="cls-3" cx="172.55" cy="173.55" r="64"/><path class="cls-4" d="M123,181.84l28.68-28.71h0v0h0a29.19,29.19,0,0,1,44.75,3.77c.08.08.18.16.26.25a10.48,10.48,0,0,0,18.52-6.72,13,13,0,0,0-2.21-6.45,50.2,50.2,0,0,0-77.21-4.58,49.8,49.8,0,0,0-13.36,37.81C122.59,178.75,122.77,180.3,123,181.84Z"/><path class="cls-4" d="M219.74,179.4a7.73,7.73,0,0,0-6.17-3H183.24l-.21,0a7.84,7.84,0,0,0-7.83,8.08c.12,4.05,4,7.59,8.28,7.59h2.11a4.09,4.09,0,0,1,2.88,7l-24.08,24.12c1.53.25,3.06.44,4.6.54a50.3,50.3,0,0,0,52.14-37.39A8,8,0,0,0,219.74,179.4Z"/><path class="cls-1" d="M172.26,149.9a21.9,21.9,0,0,0-11.78,3.86l-.29.2a55.39,55.39,0,0,0-8.44,6.9L119.9,192.64c-1.44,1.43-.53,5.28,3.95,3.43l4.26-1.57c4.47-1.22,7.75-.92,10.21,2.31,2.1,2.75.74,7.26.74,7.26-1,3.19,1.47,5.37,4.16,4.31l1.71-.63A8.36,8.36,0,0,1,155.24,212a7.47,7.47,0,0,1,.51,5.34h0a2.52,2.52,0,0,0,4.23,2.42l22.22-22.26c-6.71-.64-12.31-6.28-12.51-12.87a13.32,13.32,0,0,1,12.94-13.73,2.57,2.57,0,0,1,.4,0H196.1A23.74,23.74,0,0,0,172.26,149.9Zm-12.75,19.7c-1.2,3.28-3.65,5.4-5.49,4.73s-2.36-3.87-1.17-7.16,3.66-5.4,5.5-4.73S160.71,166.31,159.51,169.6Zm12.45,0c-1.19,3.28-3.65,5.4-5.49,4.73s-2.36-3.87-1.16-7.16,3.65-5.4,5.49-4.73S173.16,166.31,172,169.6Z"/></g></g></svg>