<svg xmlns="http://www.w3.org/2000/svg" viewBox="0 0 256 256"><defs><style>.cls-1{fill:#fed955;}.cls-2{fill:#9695f8;}.cls-3{fill:#5552fd;}.cls-4{fill:#333538;}.cls-5{fill:#a7ff58;}.cls-6{fill:#fff;}</style></defs><g id="Layer_2" data-name="Layer 2"><g id="Layer_1-2" data-name="Layer 1"><rect class="cls-1" x="42.67" y="85.33" width="21.33" height="21.33"/><rect class="cls-1" x="42.67" y="128" width="21.33" height="21.33"/><rect class="cls-1" x="42.67" y="106.67" width="21.33" height="21.33"/><rect class="cls-1" x="42.67" y="149.33" width="21.33" height="21.33"/><rect class="cls-1" x="128" y="42.67" width="21.33" height="21.33"/><rect class="cls-1" x="128" y="192" width="21.33" height="21.33"/><rect class="cls-1" x="149.33" y="42.67" width="21.33" height="21.33"/><rect class="cls-2" x="170.67" y="42.67" width="21.33" height="21.33"/><rect class="cls-2" x="64" y="42.67" width="21.33" height="21.33"/><rect class="cls-2" x="192" y="170.67" width="21.33" height="21.33"/><rect class="cls-2" x="42.67" y="170.67" width="21.33" height="21.33"/><rect class="cls-2" x="149.33" y="21.33" width="21.33" height="21.33"/><rect class="cls-3" x="149.33" width="21.33" height="21.33"/><rect class="cls-3" x="149.33" y="234.67" width="21.33" height="21.33"/><rect class="cls-2" x="149.33" y="213.33" width="21.33" height="21.33"/><rect class="cls-2" x="106.67" y="21.33" width="21.33" height="21.33"/><rect class="cls-3" x="106.67" width="21.33" height="21.33"/><rect class="cls-3" x="106.67" y="234.67" width="21.33" height="21.33"/><rect class="cls-2" x="106.67" y="213.33" width="21.33" height="21.33"/><rect class="cls-2" x="128" y="21.33" width="21.33" height="21.33"/><rect class="cls-3" x="128" width="21.33" height="21.33"/><rect class="cls-3" x="128" y="234.67" width="21.33" height="21.33"/><rect class="cls-2" x="128" y="213.33" width="21.33" height="21.33"/><rect class="cls-2" x="85.33" y="21.33" width="21.33" height="21.33"/><rect class="cls-3" x="85.33" width="21.33" height="21.33"/><rect class="cls-3" x="85.33" y="234.67" width="21.33" height="21.33"/><rect class="cls-2" x="85.33" y="213.33" width="21.33" height="21.33"/><rect class="cls-2" x="192" y="64" width="21.33" height="21.33"/><rect class="cls-2" x="42.67" y="64" width="21.33" height="21.33"/><rect class="cls-2" x="170.67" y="192" width="21.33" height="21.33"/><rect class="cls-2" x="64" y="192" width="21.33" height="21.33"/><rect class="cls-2" x="213.33" y="85.33" width="21.33" height="21.33"/><rect class="cls-2" x="21.33" y="85.33" width="21.33" height="21.33"/><rect class="cls-3" y="85.33" width="21.33" height="21.33"/><rect class="cls-3" x="21.33" y="64" width="21.33" height="21.33"/><rect class="cls-3" x="213.33" y="64" width="21.33" height="21.33"/><rect class="cls-3" x="170.67" y="213.33" width="21.33" height="21.33"/><rect class="cls-3" x="21.33" y="170.67" width="21.33" height="21.33"/><rect class="cls-3" x="42.67" y="42.67" width="21.33" height="21.33"/><rect class="cls-3" x="192" y="42.67" width="21.33" height="21.33"/><rect class="cls-3" x="192" y="192" width="21.33" height="21.33"/><rect class="cls-3" x="42.67" y="192" width="21.33" height="21.33"/><rect class="cls-3" x="64" y="21.33" width="21.33" height="21.33"/><rect class="cls-3" x="170.67" y="21.33" width="21.33" height="21.33"/><rect class="cls-3" x="213.33" y="170.67" width="21.33" height="21.33"/><rect class="cls-3" x="64" y="213.33" width="21.33" height="21.33"/><rect class="cls-3" x="234.67" y="85.33" width="21.33" height="21.33"/><rect class="cls-2" x="213.33" y="106.67" width="21.33" height="21.33"/><rect class="cls-2" x="21.33" y="106.67" width="21.33" height="21.33"/><rect class="cls-3" y="106.67" width="21.33" height="21.33"/><rect class="cls-3" x="234.67" y="106.67" width="21.33" height="21.33"/><rect class="cls-2" x="213.33" y="128" width="21.33" height="21.33"/><rect class="cls-2" x="21.33" y="128" width="21.33" height="21.33"/><rect class="cls-3" y="128" width="21.33" height="21.33"/><rect class="cls-3" x="234.67" y="128" width="21.33" height="21.33"/><rect class="cls-2" x="213.33" y="149.33" width="21.33" height="21.33"/><rect class="cls-2" x="21.33" y="149.33" width="21.33" height="21.33"/><rect class="cls-3" y="149.33" width="21.33" height="21.33"/><rect class="cls-3" x="234.67" y="149.33" width="21.33" height="21.33"/><rect class="cls-1" x="149.33" y="192" width="21.33" height="21.33"/><rect class="cls-1" x="128" y="85.33" width="21.33" height="21.33"/><rect class="cls-1" x="128" y="128" width="21.33" height="21.33"/><rect class="cls-1" x="128" y="149.33" width="21.33" height="21.33"/><rect class="cls-1" x="128" y="64" width="21.33" height="21.33"/><rect class="cls-1" x="128" y="170.67" width="21.33" height="21.33"/><rect class="cls-1" x="85.33" y="128" width="21.33" height="21.33"/><rect class="cls-1" x="85.33" y="106.67" width="21.33" height="21.33"/><rect class="cls-1" x="85.33" y="149.33" width="21.33" height="21.33"/><rect class="cls-1" x="85.33" y="64" width="21.33" height="21.33"/><rect class="cls-1" x="85.33" y="170.67" width="21.33" height="21.33"/><rect class="cls-1" x="149.33" y="128" width="21.33" height="21.33"/><rect class="cls-1" x="149.33" y="106.67" width="21.33" height="21.33"/><rect class="cls-1" x="149.33" y="149.33" width="21.33" height="21.33"/><rect class="cls-1" x="149.33" y="64" width="21.33" height="21.33"/><rect class="cls-1" x="149.33" y="170.67" width="21.33" height="21.33"/><rect class="cls-1" x="106.67" y="42.67" width="21.33" height="21.33"/><rect class="cls-1" x="106.67" y="192" width="21.33" height="21.33"/><rect class="cls-1" x="85.33" y="42.67" width="21.33" height="21.33"/><rect class="cls-1" x="85.33" y="192" width="21.33" height="21.33"/><rect class="cls-1" x="106.67" y="85.33" width="21.33" height="21.33"/><rect class="cls-1" x="106.67" y="128" width="21.33" height="21.33"/><rect class="cls-3" x="85.33" y="85.33" width="21.33" height="21.33"/><rect class="cls-3" x="128" y="106.67" width="21.33" height="21.33"/><rect class="cls-3" x="170.67" y="85.33" width="21.33" height="21.33"/><rect class="cls-3" x="170.67" y="128" width="21.33" height="21.33"/><rect class="cls-3" x="170.67" y="106.67" width="21.33" height="21.33"/><rect class="cls-3" x="170.67" y="149.33" width="21.33" height="21.33"/><rect class="cls-3" x="170.67" y="64" width="21.33" height="21.33"/><rect class="cls-3" x="170.67" y="170.67" width="21.33" height="21.33"/><rect class="cls-3" x="64" y="85.33" width="21.33" height="21.33"/><rect class="cls-3" x="64" y="128" width="21.33" height="21.33"/><rect class="cls-3" x="64" y="106.67" width="21.33" height="21.33"/><rect class="cls-3" x="64" y="149.33" width="21.33" height="21.33"/><rect class="cls-3" x="64" y="64" width="21.33" height="21.33"/><rect class="cls-3" x="64" y="170.67" width="21.33" height="21.33"/><rect class="cls-3" x="149.33" y="85.33" width="21.33" height="21.33"/><rect class="cls-3" x="106.67" y="106.67" width="21.33" height="21.33"/><rect class="cls-1" x="106.67" y="149.33" width="21.33" height="21.33"/><rect class="cls-1" x="106.67" y="64" width="21.33" height="21.33"/><rect class="cls-1" x="106.67" y="170.67" width="21.33" height="21.33"/><rect class="cls-1" x="192" y="85.33" width="21.33" height="21.33"/><rect class="cls-1" x="192" y="128" width="21.33" height="21.33"/><rect class="cls-1" x="192" y="106.67" width="21.33" height="21.33"/><rect class="cls-1" x="192" y="149.33" width="21.33" height="21.33"/><circle class="cls-4" cx="175.92" cy="177" r="68.84"/><path class="cls-5" d="M122.65,185.91,153.5,155h0l0,0h0a31.41,31.41,0,0,1,48.14,4.05l.28.28a11.28,11.28,0,0,0,19.93-7.24,13.93,13.93,0,0,0-2.38-6.93,54,54,0,0,0-83.05-4.93,53.6,53.6,0,0,0-14.38,40.68C122.18,182.59,122.37,184.26,122.65,185.91Z"/><path class="cls-5" d="M226.68,183.29a8.32,8.32,0,0,0-6.63-3.26H187.42l-.22,0a8.44,8.44,0,0,0-8.43,8.69c.13,4.35,4.29,8.16,8.91,8.16h2.26a4.39,4.39,0,0,1,3.11,7.49l-25.9,26c1.64.26,3.29.46,4.94.57a54.1,54.1,0,0,0,56.09-40.21A8.55,8.55,0,0,0,226.68,183.29Z"/><path class="cls-6" d="M175.61,151.56a23.47,23.47,0,0,0-12.67,4.15l-.32.21a59.89,59.89,0,0,0-9.07,7.43l-34.27,34.19c-1.54,1.54-.56,5.67,4.25,3.69l4.59-1.7c4.81-1.3,8.34-1,11,2.49,2.26,3,.79,7.81.79,7.81-1,3.43,1.59,5.78,4.48,4.63l1.84-.67a9,9,0,0,1,11.09,4.58,8,8,0,0,1,.55,5.74h0a2.72,2.72,0,0,0,4.55,2.61l23.9-23.95c-7.22-.69-13.24-6.75-13.45-13.84a14.34,14.34,0,0,1,13.92-14.78,3,3,0,0,1,.43,0h14.05A25.53,25.53,0,0,0,175.61,151.56ZM161.9,172.74c-1.29,3.54-3.94,5.82-5.91,5.1s-2.54-4.17-1.26-7.7,3.94-5.82,5.91-5.1S163.18,169.21,161.9,172.74Zm13.39,0c-1.28,3.54-3.93,5.82-5.91,5.1s-2.54-4.17-1.25-7.7,3.93-5.82,5.91-5.1S176.58,169.21,175.29,172.74Z"/></g></g></svg>