<svg xmlns="http://www.w3.org/2000/svg" viewBox="0 0 256 256"><defs><style>.cls-1{fill:#26a17b;}.cls-2,.cls-5{fill:#fff;}.cls-2{fill-rule:evenodd;}.cls-3{fill:#333538;}.cls-4{fill:#a7ff58;}</style></defs><g id="Layer_2" data-name="Layer 2"><g id="Layer_1-2" data-name="Layer 1"><circle class="cls-1" cx="128" cy="128" r="128"/><path class="cls-2" d="M143.38,139.06h0c-.88.06-5.42.33-15.54.33-8.08,0-13.77-.24-15.77-.33v0c-31.1-1.37-54.32-6.78-54.32-13.26S81,113.92,112.07,112.53v21.15c2,.14,7.86.49,15.91.49,9.65,0,14.49-.4,15.4-.48V112.54c31,1.39,54.2,6.8,54.2,13.27s-23.16,11.88-54.2,13.25m0-28.72V91.42h43.31V62.55H68.76V91.42h43.31v18.92C76.87,112,50.4,118.93,50.4,127.28s26.47,15.32,61.67,16.94v60.66h31.31V144.21c35.14-1.62,61.55-8.59,61.55-16.93S178.52,112,143.38,110.34"/><circle class="cls-3" cx="172.57" cy="173.57" r="64"/><path class="cls-4" d="M123.05,181.86l28.68-28.71h0v0h0a29.19,29.19,0,0,1,44.75,3.77,2.13,2.13,0,0,1,.26.26,10.49,10.49,0,0,0,18.53-6.73,13.06,13.06,0,0,0-2.21-6.45,50.22,50.22,0,0,0-77.21-4.58,49.81,49.81,0,0,0-13.37,37.81C122.61,178.77,122.79,180.32,123.05,181.86Z"/><path class="cls-4" d="M219.76,179.42a7.75,7.75,0,0,0-6.17-3H183.26l-.21,0a7.84,7.84,0,0,0-7.83,8.08c.12,4,4,7.59,8.28,7.59h2.11a4.07,4.07,0,0,1,2.88,7l-24.08,24.12c1.53.25,3.06.44,4.6.54a50.3,50.3,0,0,0,52.14-37.39A7.92,7.92,0,0,0,219.76,179.42Z"/><path class="cls-5" d="M172.28,149.92a21.9,21.9,0,0,0-11.78,3.86l-.29.2a55.39,55.39,0,0,0-8.44,6.9l-31.85,31.78c-1.44,1.44-.53,5.28,4,3.44l4.26-1.58c4.48-1.21,7.76-.92,10.21,2.31,2.1,2.76.74,7.27.74,7.27-1,3.19,1.47,5.36,4.16,4.3l1.71-.63A8.36,8.36,0,0,1,155.26,212a7.39,7.39,0,0,1,.51,5.33h0a2.52,2.52,0,0,0,4.23,2.42l22.22-22.26c-6.71-.64-12.31-6.27-12.5-12.87a13.32,13.32,0,0,1,12.93-13.73,2.71,2.71,0,0,1,.4,0h13.07A23.74,23.74,0,0,0,172.28,149.92Zm-12.75,19.7c-1.19,3.28-3.65,5.4-5.49,4.74s-2.36-3.88-1.16-7.16,3.65-5.41,5.49-4.74S160.73,166.33,159.53,169.62Zm12.46,0c-1.2,3.28-3.66,5.4-5.5,4.74s-2.36-3.88-1.16-7.16,3.65-5.41,5.49-4.74S173.18,166.33,172,169.62Z"/></g></g></svg>