<svg xmlns="http://www.w3.org/2000/svg" viewBox="0 0 256 256"><defs><style>.cls-1{fill:#2775ca;}.cls-2{fill:#fff;}.cls-3{fill:#333538;}.cls-4{fill:#a7ff58;}</style></defs><g id="Layer_2" data-name="Layer 2"><g id="Layer_1-2" data-name="Layer 1"><path class="cls-1" d="M128,256A128,128,0,1,0,0,128,127.68,127.68,0,0,0,128,256Z"/><path class="cls-2" d="M163.2,148.26c0-18.66-11.2-25.06-33.6-27.74-16-2.13-19.2-6.4-19.2-13.86s5.34-12.26,16-12.26c9.6,0,14.94,3.2,17.6,11.2a4,4,0,0,0,3.74,2.66h8.53a3.65,3.65,0,0,0,3.74-3.74V104a26.66,26.66,0,0,0-24-21.87V69.32c0-2.13-1.6-3.73-4.26-4.26h-8c-2.14,0-3.74,1.6-4.26,4.26V81.59c-16,2.13-26.14,12.8-26.14,26.13,0,17.6,10.66,24.54,33.06,27.2,14.94,2.67,19.74,5.87,19.74,14.4s-7.46,14.4-17.6,14.4c-13.86,0-18.66-5.86-20.26-13.86a3.9,3.9,0,0,0-3.74-3.2H95.49a3.65,3.65,0,0,0-3.74,3.74v.54c2.14,13.34,10.66,22.94,28.26,25.6v12.8c0,2.14,1.6,3.74,4.26,4.26h8c2.14,0,3.74-1.6,4.27-4.26v-12.8C152.54,173.86,163.2,162.66,163.2,148.26Z"/><path class="cls-2" d="M100.8,204.26c-41.6-14.94-62.94-61.34-47.46-102.4A78.89,78.89,0,0,1,100.8,54.4a5.34,5.34,0,0,0,3.2-5.34V41.6a4,4,0,0,0-3.2-4.26,3.24,3.24,0,0,0-2.14.53,96,96,0,0,0,0,182.94,3.25,3.25,0,0,0,4.8-2.14c.54-.53.54-1.06.54-2.13v-7.47C104,207.46,102.4,205.34,100.8,204.26Zm56.54-166.4a3.25,3.25,0,0,0-4.8,2.14c-.54.54-.54,1.06-.54,2.14V49.6a7.1,7.1,0,0,0,3.2,5.34c41.6,14.93,62.94,61.33,47.46,102.4A78.89,78.89,0,0,1,155.2,204.8a5.34,5.34,0,0,0-3.2,5.34v7.46a4,4,0,0,0,3.2,4.26,3.19,3.19,0,0,0,2.14-.54,96.38,96.38,0,0,0,0-183.46Z"/><circle class="cls-3" cx="172.91" cy="173.91" r="64"/><path class="cls-4" d="M123.38,182.19l28.68-28.71h0a29.2,29.2,0,0,1,44.75,3.76,3.19,3.19,0,0,1,.26.26,10.49,10.49,0,0,0,18.53-6.73,13,13,0,0,0-2.21-6.44,50.2,50.2,0,0,0-77.21-4.58,49.8,49.8,0,0,0-13.36,37.81C122.94,179.1,123.13,180.65,123.38,182.19Z"/><path class="cls-4" d="M220.09,179.75a7.73,7.73,0,0,0-6.16-3H183.59l-.2,0a7.82,7.82,0,0,0-7.83,8.08c.12,4,4,7.59,8.27,7.59h2.11a4.08,4.08,0,0,1,2.89,7l-24.08,24.13c1.52.25,3.06.43,4.6.54a50.31,50.31,0,0,0,52.14-37.39A8,8,0,0,0,220.09,179.75Z"/><path class="cls-2" d="M172.62,150.26a21.88,21.88,0,0,0-11.79,3.86l-.29.19a55.27,55.27,0,0,0-8.43,6.91L120.25,193c-1.43,1.43-.52,5.27,4,3.43l4.27-1.58c4.47-1.21,7.75-.91,10.21,2.32,2.09,2.75.73,7.26.73,7.26-1,3.19,1.48,5.37,4.17,4.3l1.7-.62a8.35,8.35,0,0,1,10.31,4.26,7.34,7.34,0,0,1,.51,5.33h0a2.53,2.53,0,0,0,4.23,2.43l22.22-22.26c-6.7-.65-12.3-6.28-12.5-12.88A13.32,13.32,0,0,1,183,171.26a2.58,2.58,0,0,1,.4,0h13.06A23.73,23.73,0,0,0,172.62,150.26ZM159.87,170c-1.2,3.29-3.66,5.41-5.5,4.74s-2.36-3.87-1.16-7.16,3.65-5.41,5.49-4.74S161.06,166.67,159.87,170Zm12.45,0c-1.2,3.29-3.65,5.41-5.49,4.74s-2.36-3.87-1.17-7.16,3.66-5.41,5.5-4.74S173.52,166.67,172.32,170Z"/></g></g></svg>