<svg xmlns="http://www.w3.org/2000/svg" viewBox="0 0 256 256"><defs><style>.cls-1{fill:#292138;}.cls-2{fill:#fff;}.cls-3{fill:#5b5665;}.cls-4{fill:#f90;}.cls-5{fill:#333538;}.cls-6{fill:#a7ff58;}</style></defs><g id="Layer_2" data-name="Layer 2"><g id="Layer_1-2" data-name="Layer 1"><path class="cls-1" d="M128,256A128,128,0,1,1,256,128,128,128,0,0,1,128,256Z"/><path class="cls-2" d="M128,10a118,118,0,1,0,.14,0Z"/><path id="Shape" class="cls-3" d="M208.74,53.73l-7,7a99.51,99.51,0,0,1,0,134.31l7,7a109.56,109.56,0,0,0,0-148.53Z"/><path id="Shape-2" class="cls-3" d="M60.92,54.33a99.52,99.52,0,0,1,134.3,0l7-7a109.55,109.55,0,0,0-148.52,0Z"/><path id="Shape-3" class="cls-3" d="M54.33,195.13a99.51,99.51,0,0,1,0-134.23l-7-7a109.55,109.55,0,0,0,0,148.52Z"/><path id="Shape-4" class="cls-3" d="M195.13,201.62a99.52,99.52,0,0,1-134.3,0l-7,7a109.55,109.55,0,0,0,148.52,0Z"/><path id="Shape-5" class="cls-4" d="M172.38,104.55C171,89.88,158.32,85,142.32,83.46V63.26H129.94V83.08h-9.88V63.26H107.78V83.6H82.69V96.84s9.13-.17,9,0a6.38,6.38,0,0,1,7,5.43v55.67A4.39,4.39,0,0,1,94,162c.16.14-9,0-9,0l-2.34,14.79h24.86v20.66h12.37V177.13h9.88V197.4h12.4V177c20.9-1.27,35.47-6.42,37.3-26,1.48-15.75-5.93-22.78-17.76-25.61C168.93,121.84,173.38,115.28,172.38,104.55Zm-17.34,44c0,15.37-26.34,13.61-34.73,13.61V134.89C128.7,134.91,155,132.5,155,148.55Zm-5.74-38.43c0,14.06-22,12.35-29,12.35V97.68C127.32,97.68,149.3,95.48,149.3,110.12Z"/><circle class="cls-5" cx="172.55" cy="173.55" r="64"/><path class="cls-6" d="M123,181.83l28.68-28.71h0a29.2,29.2,0,0,1,44.75,3.76c.09.09.18.17.26.26a10.49,10.49,0,0,0,18.53-6.72,13.06,13.06,0,0,0-2.21-6.45,50.2,50.2,0,0,0-77.21-4.58,49.8,49.8,0,0,0-13.36,37.81C122.58,178.74,122.77,180.29,123,181.83Z"/><path class="cls-6" d="M219.73,179.39a7.73,7.73,0,0,0-6.16-3H183.23l-.2,0a7.82,7.82,0,0,0-7.83,8.08c.12,4,4,7.59,8.27,7.59h2.11a4.08,4.08,0,0,1,2.89,7l-24.08,24.13c1.52.25,3.06.43,4.6.54a50.31,50.31,0,0,0,52.14-37.39A8,8,0,0,0,219.73,179.39Z"/><path class="cls-2" d="M172.26,149.9a21.88,21.88,0,0,0-11.79,3.86l-.29.19a55.27,55.27,0,0,0-8.43,6.91l-31.86,31.78c-1.43,1.43-.52,5.27,4,3.43l4.27-1.58c4.47-1.21,7.75-.91,10.21,2.32,2.09,2.75.73,7.26.73,7.26-1,3.19,1.48,5.37,4.17,4.3l1.7-.62A8.35,8.35,0,0,1,155.23,212a7.34,7.34,0,0,1,.51,5.33h0a2.53,2.53,0,0,0,4.24,2.43l22.21-22.26c-6.7-.65-12.3-6.28-12.5-12.88a13.32,13.32,0,0,1,12.94-13.73,2.58,2.58,0,0,1,.4,0h13.06A23.73,23.73,0,0,0,172.26,149.9Zm-12.75,19.69c-1.2,3.29-3.66,5.41-5.5,4.74s-2.36-3.87-1.16-7.16,3.65-5.41,5.49-4.74S160.7,166.31,159.51,169.59Zm12.45,0c-1.2,3.29-3.65,5.41-5.49,4.74s-2.36-3.87-1.17-7.16,3.66-5.41,5.5-4.74S173.16,166.31,172,169.59Z"/></g></g></svg>