<svg xmlns="http://www.w3.org/2000/svg" viewBox="0 0 237.99 237.99"><defs><style>.cls-1{fill:#fed955;}.cls-2{fill:#9695f8;}.cls-3{fill:#5552fd;}</style></defs><g id="Layer_2" data-name="Layer 2"><g id="Layer_1-2" data-name="Layer 1"><rect class="cls-1" x="39.66" y="79.33" width="19.83" height="19.83"/><rect class="cls-1" x="39.66" y="118.99" width="19.83" height="19.83"/><rect class="cls-1" x="39.66" y="99.16" width="19.83" height="19.83"/><rect class="cls-1" x="39.66" y="138.82" width="19.83" height="19.83"/><rect class="cls-1" x="118.99" y="39.66" width="19.83" height="19.83"/><rect class="cls-1" x="118.99" y="178.49" width="19.83" height="19.83"/><rect class="cls-1" x="138.82" y="39.66" width="19.83" height="19.83"/><rect class="cls-2" x="158.66" y="39.66" width="19.83" height="19.83"/><rect class="cls-2" x="59.5" y="39.66" width="19.83" height="19.83"/><rect class="cls-2" x="178.49" y="158.66" width="19.83" height="19.83"/><rect class="cls-2" x="39.66" y="158.66" width="19.83" height="19.83"/><rect class="cls-2" x="138.82" y="19.83" width="19.83" height="19.83"/><rect class="cls-3" x="138.82" width="19.83" height="19.83"/><rect class="cls-3" x="138.82" y="218.15" width="19.83" height="19.83"/><rect class="cls-2" x="138.82" y="198.32" width="19.83" height="19.83"/><rect class="cls-2" x="99.16" y="19.83" width="19.83" height="19.83"/><rect class="cls-3" x="99.16" width="19.83" height="19.83"/><rect class="cls-3" x="99.16" y="218.15" width="19.83" height="19.83"/><rect class="cls-2" x="99.16" y="198.32" width="19.83" height="19.83"/><rect class="cls-2" x="118.99" y="19.83" width="19.83" height="19.83"/><rect class="cls-3" x="118.99" width="19.83" height="19.83"/><rect class="cls-3" x="118.99" y="218.15" width="19.83" height="19.83"/><rect class="cls-2" x="118.99" y="198.32" width="19.83" height="19.83"/><rect class="cls-2" x="79.33" y="19.83" width="19.83" height="19.83"/><rect class="cls-3" x="79.33" width="19.83" height="19.83"/><rect class="cls-3" x="79.33" y="218.15" width="19.83" height="19.83"/><rect class="cls-2" x="79.33" y="198.32" width="19.83" height="19.83"/><rect class="cls-2" x="178.49" y="59.5" width="19.83" height="19.83"/><rect class="cls-2" x="39.66" y="59.5" width="19.83" height="19.83"/><rect class="cls-2" x="158.66" y="178.49" width="19.83" height="19.83"/><rect class="cls-2" x="59.5" y="178.49" width="19.83" height="19.83"/><rect class="cls-2" x="198.32" y="79.33" width="19.83" height="19.83"/><rect class="cls-2" x="19.83" y="79.33" width="19.83" height="19.83"/><rect class="cls-3" y="79.33" width="19.83" height="19.83"/><rect class="cls-3" x="19.83" y="59.5" width="19.83" height="19.83"/><rect class="cls-3" x="198.32" y="59.5" width="19.83" height="19.83"/><rect class="cls-3" x="158.66" y="198.32" width="19.83" height="19.83"/><rect class="cls-3" x="19.83" y="158.66" width="19.83" height="19.83"/><rect class="cls-3" x="39.66" y="39.66" width="19.83" height="19.83"/><rect class="cls-3" x="178.49" y="39.66" width="19.83" height="19.83"/><rect class="cls-3" x="178.49" y="178.49" width="19.83" height="19.83"/><rect class="cls-3" x="39.66" y="178.49" width="19.83" height="19.83"/><rect class="cls-3" x="59.5" y="19.83" width="19.83" height="19.83"/><rect class="cls-3" x="158.66" y="19.83" width="19.83" height="19.83"/><rect class="cls-3" x="198.32" y="158.66" width="19.83" height="19.83"/><rect class="cls-3" x="59.5" y="198.32" width="19.83" height="19.83"/><rect class="cls-3" x="218.15" y="79.33" width="19.83" height="19.83"/><rect class="cls-2" x="198.32" y="99.16" width="19.83" height="19.83"/><rect class="cls-2" x="19.83" y="99.16" width="19.83" height="19.83"/><rect class="cls-3" y="99.16" width="19.83" height="19.83"/><rect class="cls-3" x="218.15" y="99.16" width="19.83" height="19.83"/><rect class="cls-2" x="198.32" y="118.99" width="19.83" height="19.83"/><rect class="cls-2" x="19.83" y="118.99" width="19.83" height="19.83"/><rect class="cls-3" y="118.99" width="19.83" height="19.83"/><rect class="cls-3" x="218.15" y="118.99" width="19.83" height="19.83"/><rect class="cls-2" x="198.32" y="138.82" width="19.83" height="19.83"/><rect class="cls-2" x="19.83" y="138.82" width="19.83" height="19.83"/><rect class="cls-3" y="138.82" width="19.83" height="19.83"/><rect class="cls-3" x="218.15" y="138.82" width="19.83" height="19.83"/><rect class="cls-1" x="138.82" y="178.49" width="19.83" height="19.83"/><rect class="cls-1" x="118.99" y="79.33" width="19.83" height="19.83"/><rect class="cls-1" x="118.99" y="118.99" width="19.83" height="19.83"/><rect class="cls-1" x="118.99" y="138.82" width="19.83" height="19.83"/><rect class="cls-1" x="118.99" y="59.5" width="19.83" height="19.83"/><rect class="cls-1" x="118.99" y="158.66" width="19.83" height="19.83"/><rect class="cls-1" x="79.33" y="118.99" width="19.83" height="19.83"/><rect class="cls-1" x="79.33" y="99.16" width="19.83" height="19.83"/><rect class="cls-1" x="79.33" y="138.82" width="19.83" height="19.83"/><rect class="cls-1" x="79.33" y="59.5" width="19.83" height="19.83"/><rect class="cls-1" x="79.33" y="158.66" width="19.83" height="19.83"/><rect class="cls-1" x="138.82" y="118.99" width="19.83" height="19.83"/><rect class="cls-1" x="138.82" y="99.16" width="19.83" height="19.83"/><rect class="cls-1" x="138.82" y="138.82" width="19.83" height="19.83"/><rect class="cls-1" x="138.82" y="59.5" width="19.83" height="19.83"/><rect class="cls-1" x="138.82" y="158.66" width="19.83" height="19.83"/><rect class="cls-1" x="99.16" y="39.66" width="19.83" height="19.83"/><rect class="cls-1" x="99.16" y="178.49" width="19.83" height="19.83"/><rect class="cls-1" x="79.33" y="39.66" width="19.83" height="19.83"/><rect class="cls-1" x="79.33" y="178.49" width="19.83" height="19.83"/><rect class="cls-1" x="99.16" y="79.33" width="19.83" height="19.83"/><rect class="cls-1" x="99.16" y="118.99" width="19.83" height="19.83"/><rect class="cls-3" x="79.33" y="79.33" width="19.83" height="19.83"/><rect class="cls-3" x="118.99" y="99.16" width="19.83" height="19.83"/><rect class="cls-3" x="158.66" y="79.33" width="19.83" height="19.83"/><rect class="cls-3" x="158.66" y="118.99" width="19.83" height="19.83"/><rect class="cls-3" x="158.66" y="99.16" width="19.83" height="19.83"/><rect class="cls-3" x="158.66" y="138.82" width="19.83" height="19.83"/><rect class="cls-3" x="158.66" y="59.5" width="19.83" height="19.83"/><rect class="cls-3" x="158.66" y="158.66" width="19.83" height="19.83"/><rect class="cls-3" x="59.5" y="79.33" width="19.83" height="19.83"/><rect class="cls-3" x="59.5" y="118.99" width="19.83" height="19.83"/><rect class="cls-3" x="59.5" y="99.16" width="19.83" height="19.83"/><rect class="cls-3" x="59.5" y="138.82" width="19.83" height="19.83"/><rect class="cls-3" x="59.5" y="59.5" width="19.83" height="19.83"/><rect class="cls-3" x="59.5" y="158.66" width="19.83" height="19.83"/><rect class="cls-3" x="138.82" y="79.33" width="19.83" height="19.83"/><rect class="cls-3" x="99.16" y="99.16" width="19.83" height="19.83"/><rect class="cls-1" x="99.16" y="138.82" width="19.83" height="19.83"/><rect class="cls-1" x="99.16" y="59.5" width="19.83" height="19.83"/><rect class="cls-1" x="99.16" y="158.66" width="19.83" height="19.83"/><rect class="cls-1" x="178.49" y="79.33" width="19.83" height="19.83"/><rect class="cls-1" x="178.49" y="118.99" width="19.83" height="19.83"/><rect class="cls-1" x="178.49" y="99.16" width="19.83" height="19.83"/><rect class="cls-1" x="178.49" y="138.82" width="19.83" height="19.83"/></g></g></svg>