<svg width="48" height="48" viewBox="0 0 48 48" fill="none" xmlns="http://www.w3.org/2000/svg">
<path d="M24 47.9999C28.7468 47.9999 33.3869 46.5924 37.3337 43.9552C41.2805 41.3181 44.3566 37.5698 46.1731 33.1844C47.9896 28.7989 48.4649 23.9733 47.5388 19.3178C46.6128 14.6623 44.327 10.3859 40.9706 7.02944C37.6141 3.67298 33.3377 1.38721 28.6822 0.461163C24.0267 -0.46488 19.2011 0.0103988 14.8156 1.8269C10.4302 3.6434 6.68195 6.71953 4.0448 10.6663C1.40765 14.6131 7.53838e-05 19.2532 7.53838e-05 24C-0.00783918 27.1539 0.607536 30.2783 1.81084 33.1937C3.01415 36.1091 4.78167 38.758 7.01185 40.9882C9.24203 43.2183 11.8909 44.9859 14.8063 46.1892C17.7217 47.3925 20.8461 48.0078 24 47.9999V47.9999Z" fill="#2775CA"/>
<path d="M30.5999 27.8C30.5999 24.3 28.4999 23.1 24.2999 22.6C21.2999 22.2 20.6999 21.4 20.6999 20C20.6999 18.6 21.6999 17.7 23.6999 17.7C25.4999 17.7 26.4999 18.3 27.0333 19.8C27.0829 19.9397 27.1726 20.0616 27.2912 20.1506C27.4098 20.2395 27.5519 20.2915 27.6999 20.3H29.3333C29.4237 20.3001 29.5132 20.2818 29.5963 20.2463C29.6795 20.2107 29.7545 20.1586 29.8169 20.0931C29.8792 20.0276 29.9276 19.9501 29.9591 19.8654C29.9906 19.7806 30.0045 19.6903 29.9999 19.6V19.5C29.8068 18.4161 29.2608 17.4264 28.447 16.6849C27.6332 15.9434 26.5971 15.4917 25.4999 15.4V13C25.4999 12.6 25.1999 12.3 24.6999 12.2H23.1999C22.7999 12.2 22.5333 12.5 22.4066 13V15.3333C19.4066 15.7333 17.5 17.7333 17.5 20.2333C17.5 23.5333 19.4999 24.8333 23.6999 25.3333C26.4999 25.8333 27.3999 26.4333 27.3999 28C27.3999 29.5666 26.0066 30.6666 24.0666 30.6666C21.4733 30.6666 20.5733 29.5666 20.2733 28.0666C20.2414 27.9011 20.154 27.7514 20.0255 27.6423C19.897 27.5332 19.7351 27.4712 19.5666 27.4667H17.9066C17.8158 27.4612 17.7248 27.4744 17.6392 27.5054C17.5536 27.5365 17.4753 27.5847 17.4091 27.6472C17.3429 27.7096 17.2902 27.785 17.2542 27.8686C17.2183 27.9522 17.1998 28.0423 17.2 28.1333V28.2333C17.6066 30.7333 19.1999 32.5333 22.5333 33.0333V35.4333C22.5333 35.8333 22.8333 36.1 23.3333 36.2333H24.7999C25.1999 36.2333 25.4666 35.9333 25.5999 35.4333V33.0333C28.5999 32.6 30.5999 30.5 30.5999 27.8Z" fill="white"/>
<path d="M18.9 38.2999C16.0232 37.244 13.54 35.3303 11.7857 32.8177C10.0314 30.305 9.09074 27.3144 9.09074 24.25C9.09074 21.1855 10.0314 18.1949 11.7857 15.6822C13.54 13.1696 16.0232 11.256 18.9 10.2C19.0914 10.1162 19.2521 9.97491 19.3596 9.79572C19.4671 9.61654 19.5162 9.40833 19.5 9.19999V7.8C19.5137 7.61663 19.4604 7.43452 19.3501 7.28741C19.2398 7.14031 19.0799 7.0382 18.9 7C18.759 6.98503 18.6173 7.02046 18.5 7.1C14.8618 8.25955 11.6867 10.5461 9.43353 13.629C7.18041 16.7119 5.96606 20.4315 5.96606 24.25C5.96606 28.0685 7.18041 31.788 9.43353 34.871C11.6867 37.9539 14.8618 40.2404 18.5 41.3999C18.5831 41.4485 18.6765 41.4766 18.7726 41.4819C18.8686 41.4872 18.9646 41.4696 19.0525 41.4305C19.1404 41.3915 19.2178 41.332 19.2782 41.2572C19.3386 41.1823 19.3804 41.0941 19.4 40.9999C19.5 40.8999 19.5 40.7999 19.5 40.5999V39.1999C19.4684 39.0163 19.3987 38.8414 19.2954 38.6864C19.192 38.5313 19.0573 38.3997 18.9 38.2999V38.2999ZM29.5 7.1C29.4169 7.05145 29.3235 7.02336 29.2274 7.01804C29.1314 7.01272 29.0354 7.03033 28.9475 7.0694C28.8596 7.10848 28.7822 7.1679 28.7218 7.24277C28.6614 7.31764 28.6196 7.40581 28.6 7.5C28.5 7.6 28.5 7.7 28.5 7.9V9.33333C28.5177 9.53457 28.5809 9.72916 28.6849 9.9024C28.7888 10.0756 28.9308 10.223 29.1 10.3333C31.9768 11.3893 34.46 13.3029 36.2143 15.8156C37.9686 18.3282 38.9093 21.3188 38.9093 24.3833C38.9093 27.4478 37.9686 30.4384 36.2143 32.951C34.46 35.4637 31.9768 37.3773 29.1 38.4333C28.9086 38.5171 28.748 38.6584 28.6404 38.8375C28.5329 39.0167 28.4838 39.2249 28.5 39.4333V40.8333C28.4863 41.0166 28.5396 41.1987 28.6499 41.3458C28.7602 41.4929 28.9201 41.5951 29.1 41.6333C29.241 41.6482 29.3827 41.6128 29.5 41.5333C33.1382 40.3593 36.3104 38.0618 38.5606 34.9713C40.8108 31.8807 42.023 28.1562 42.023 24.3333C42.023 20.5104 40.8108 16.7859 38.5606 13.6953C36.3104 10.6048 33.1382 8.30734 29.5 7.13333V7.1Z" fill="white"/>
<circle cx="33.9998" cy="34.6666" r="9.33332" fill="#3654AE"/>
<path d="M29.1732 38.1599C29.6532 38.1599 30.0532 37.7599 30.0532 37.2799C30.0532 36.7999 29.6532 36.3999 29.1732 36.3999C28.6932 36.3999 28.2932 36.7999 28.2932 37.2799C28.2932 37.7599 28.6932 38.1599 29.1732 38.1599Z" fill="white"/>
<path d="M35.5993 38.1919C36.8633 38.1919 37.9033 37.7759 38.6713 37.0079L38.0953 36.2239C37.4873 36.8479 36.5913 37.1999 35.7113 37.1999C34.0473 37.1999 33.0233 35.9839 32.9273 34.5279H39.1833V34.2239C39.1833 31.904 37.8073 30.08 35.4713 30.08C33.2633 30.08 31.6633 31.888 31.6633 34.1279C31.6633 36.5439 33.3113 38.1919 35.5993 38.1919ZM37.9993 33.648H32.9273C32.9913 32.464 33.8073 31.072 35.4553 31.072C37.2153 31.072 37.9833 32.496 37.9993 33.648Z" fill="white"/>
</svg>
